<svg version="1.1" viewBox="0.0 0.0 739.3517060367454 431.81889763779526" fill="none" stroke="none" stroke-linecap="square" stroke-miterlimit="10" xmlns:xlink="http://www.w3.org/1999/xlink" xmlns="http://www.w3.org/2000/svg"><clipPath id="p.0"><path d="m0 0l739.3517 0l0 431.8189l-739.3517 0l0 -431.8189z" clip-rule="nonzero"/></clipPath><g clip-path="url(#p.0)"><path fill="#000000" fill-opacity="0.0" d="m0 0l739.3517 0l0 431.8189l-739.3517 0z" fill-rule="evenodd"/><path fill="#4285f4" d="m189.8661 14.912326l0 0c0 -2.011425 1.6305695 -3.6420069 3.6419983 -3.6420069l150.07033 0c0.96591187 0 1.892273 0.38371086 2.5752869 1.066719c0.6830139 0.68300915 1.0667114 1.6093674 1.0667114 2.5752878l0 33.97583c0 2.0114212 -1.6305847 3.642006 -3.6419983 3.642006l-150.07033 0c-2.0114288 0 -3.6419983 -1.6305847 -3.6419983 -3.642006z" fill-rule="evenodd"/><path fill="#ffffff" d="m226.07753 38.01024q-1.65625 0 -3.046875 -0.78125q-1.375 -0.796875 -2.171875 -2.15625q-0.78125 -1.375 -0.78125 -3.046875q0 -1.6562481 0.78125 -3.015623q0.796875 -1.375 2.171875 -2.171875q1.390625 -0.796875 3.046875 -0.796875q2.59375 0 4.296875 1.875l-1.53125 1.46875q-1.09375 -1.28125 -2.75 -1.28125q-1.0625 0 -1.953125 0.484375q-0.875 0.484375 -1.390625 1.390625q-0.5 0.890625 -0.5 2.046873q0 1.171875 0.5 2.078125q0.515625 0.890625 1.390625 1.375q0.890625 0.484375 1.953125 0.484375q1.8125 0 3.03125 -1.5l1.53125 1.453125q-0.84375 1.03125 -2.015625 1.5625q-1.15625 0.53125 -2.5625 0.53125zm9.867523 0q-1.265625 0 -2.25 -0.5625q-0.984375 -0.5625 -1.546875 -1.546875q-0.546875 -0.984375 -0.546875 -2.21875q0 -1.21875 0.546875 -2.203123q0.5625 -1.0 1.546875 -1.5625q0.984375 -0.578125 2.25 -0.578125q1.25 0 2.234375 0.578125q1.0 0.5625 1.546875 1.5625q0.5625 0.9843731 0.5625 2.203123q0 1.234375 -0.5625 2.21875q-0.546875 0.984375 -1.546875 1.546875q-0.984375 0.5625 -2.234375 0.5625zm0 -1.9375q0.609375 0 1.125 -0.28125q0.515625 -0.28125 0.8125 -0.828125q0.3125 -0.546875 0.3125 -1.28125q0 -0.71875 -0.3125 -1.265625q-0.296875 -0.5468731 -0.8125 -0.8281231q-0.515625 -0.296875 -1.125 -0.296875q-0.609375 0 -1.125 0.296875q-0.5 0.28125 -0.8125 0.8281231q-0.3125 0.546875 -0.3125 1.265625q0 0.71875 0.3125 1.28125q0.3125 0.546875 0.8125 0.828125q0.515625 0.28125 1.125 0.28125zm5.789398 -6.468748l1.953125 0l0 1.015625l0.140625 0q0.375 -0.59375 1.015625 -0.9375q0.65625 -0.34375 1.453125 -0.34375q0.875 0 1.515625 0.421875q0.640625 0.40625 0.90625 1.03125q0.40625 -0.640625 1.09375 -1.046875q0.703125 -0.40625 1.640625 -0.40625q1.390625 0 2.109375 0.859375q0.734375 0.859375 0.734375 2.312498l0 5.25l-2.078125 0l0 -4.859375q0 -0.765625 -0.359375 -1.1874981q-0.359375 -0.421875 -1.0 -0.421875q-0.8125 0 -1.296875 0.65625q-0.484375 0.6406231 -0.484375 1.7031231l0 4.109375l-2.109375 0l0 -4.859375q0 -0.765625 -0.375 -1.1874981q-0.375 -0.421875 -1.0625 -0.421875q-0.765625 0 -1.234375 0.65625q-0.46875 0.6406231 -0.46875 1.7031231l0 4.109375l-2.09375 0l0 -8.156248zm14.49791 0l1.96875 0l0 0.984375l0.140625 0q0.328125 -0.53125 0.96875 -0.890625q0.640625 -0.359375 1.46875 -0.359375q1.109375 0 2.015625 0.5625q0.90625 0.546875 1.40625 1.546875q0.515625 0.9843731 0.515625 2.234373q0 1.265625 -0.515625 2.25q-0.5 0.984375 -1.40625 1.53125q-0.90625 0.546875 -2.015625 0.546875q-0.828125 0 -1.484375 -0.34375q-0.640625 -0.359375 -0.953125 -0.875l-0.140625 0l0.140625 1.140625l0 3.28125l-2.109375 0l0 -11.609373zm4.1875 6.468748q0.59375 0 1.09375 -0.296875q0.515625 -0.296875 0.8125 -0.84375q0.3125 -0.546875 0.3125 -1.25q0 -0.703125 -0.3125 -1.25q-0.296875 -0.5468731 -0.8125 -0.8437481q-0.5 -0.296875 -1.09375 -0.296875q-0.578125 0 -1.09375 0.296875q-0.515625 0.296875 -0.828125 0.8437481q-0.296875 0.546875 -0.296875 1.25q0 0.703125 0.296875 1.25q0.3125 0.546875 0.828125 0.84375q0.515625 0.296875 1.09375 0.296875zm9.813263 1.9375q-1.265625 0 -2.25 -0.5625q-0.984375 -0.5625 -1.546875 -1.546875q-0.546875 -0.984375 -0.546875 -2.21875q0 -1.21875 0.546875 -2.203123q0.5625 -1.0 1.546875 -1.5625q0.984375 -0.578125 2.25 -0.578125q1.25 0 2.234375 0.578125q1.0 0.5625 1.546875 1.5625q0.5625 0.9843731 0.5625 2.203123q0 1.234375 -0.5625 2.21875q-0.546875 0.984375 -1.546875 1.546875q-0.984375 0.5625 -2.234375 0.5625zm0 -1.9375q0.609375 0 1.125 -0.28125q0.515625 -0.28125 0.8125 -0.828125q0.3125 -0.546875 0.3125 -1.28125q0 -0.71875 -0.3125 -1.265625q-0.296875 -0.5468731 -0.8125 -0.8281231q-0.515625 -0.296875 -1.125 -0.296875q-0.609375 0 -1.125 0.296875q-0.5 0.28125 -0.8125 0.8281231q-0.3125 0.546875 -0.3125 1.265625q0 0.71875 0.3125 1.28125q0.3125 0.546875 0.8125 0.828125q0.515625 0.28125 1.125 0.28125zm8.963165 1.9375q-1.484375 0 -2.40625 -0.59375q-0.921875 -0.609375 -1.28125 -1.59375l1.859375 -0.8125q0.265625 0.578125 0.734375 0.875q0.46875 0.296875 1.09375 0.296875q0.578125 0 0.953125 -0.1875q0.390625 -0.1875 0.390625 -0.609375q0 -0.390625 -0.359375 -0.59375q-0.34375 -0.203125 -1.046875 -0.359375l-0.953125 -0.203125q-1.0 -0.25 -1.65625 -0.875q-0.65625 -0.640625 -0.65625 -1.5781231q0 -0.703125 0.421875 -1.265625q0.421875 -0.5625 1.15625 -0.859375q0.734375 -0.3125 1.609375 -0.3125q2.53125 0 3.375 1.78125l-1.796875 0.78125q-0.46875 -0.859375 -1.53125 -0.859375q-0.546875 0 -0.875 0.203125q-0.3125 0.203125 -0.3125 0.5q0 0.5781231 1.09375 0.8593731l1.203125 0.296875q1.21875 0.296875 1.828125 0.921875q0.609375 0.625 0.609375 1.53125q0 0.796875 -0.453125 1.390625q-0.453125 0.59375 -1.25 0.9375q-0.78125 0.328125 -1.75 0.328125zm6.078125 -9.312498q-0.5625 0 -0.96875 -0.390625q-0.390625 -0.40625 -0.390625 -0.96875q0 -0.546875 0.390625 -0.9375q0.40625 -0.40625 0.96875 -0.40625q0.5625 0 0.953125 0.40625q0.390625 0.390625 0.390625 0.9375q0 0.5625 -0.390625 0.96875q-0.390625 0.390625 -0.953125 0.390625zm-1.046875 0.90625l2.09375 0l0 8.156248l-2.09375 0l0 -8.156248zm7.7418823 8.281248q-0.609375 0 -1.125 -0.171875q-0.515625 -0.1875 -0.828125 -0.515625q-0.75 -0.71875 -0.75 -2.046875l0 -3.765623l-1.421875 0l0 -1.78125l1.421875 0l0 -2.3125l2.09375 0l0 2.3125l2.0 0l0 1.78125l-2.0 0l0 3.390623q0 0.609375 0.265625 0.890625q0.234375 0.25 0.78125 0.25q0.296875 0 0.5 -0.078125q0.203125 -0.078125 0.515625 -0.265625l0 2.046875q-0.6875 0.265625 -1.453125 0.265625zm4.393036 -9.187498q-0.5625 0 -0.96875 -0.390625q-0.390625 -0.40625 -0.390625 -0.96875q0 -0.546875 0.390625 -0.9375q0.40625 -0.40625 0.96875 -0.40625q0.5625 0 0.953125 0.40625q0.390625 0.390625 0.390625 0.9375q0 0.5625 -0.390625 0.96875q-0.390625 0.390625 -0.953125 0.390625zm-1.046875 0.90625l2.09375 0l0 8.156248l-2.09375 0l0 -8.156248zm8.085632 8.406248q-1.265625 0 -2.25 -0.5625q-0.984375 -0.5625 -1.546875 -1.546875q-0.546875 -0.984375 -0.546875 -2.21875q0 -1.21875 0.546875 -2.203123q0.5625 -1.0 1.546875 -1.5625q0.984375 -0.578125 2.25 -0.578125q1.25 0 2.234375 0.578125q1.0 0.5625 1.546875 1.5625q0.5625 0.9843731 0.5625 2.203123q0 1.234375 -0.5625 2.21875q-0.546875 0.984375 -1.546875 1.546875q-0.984375 0.5625 -2.234375 0.5625zm0 -1.9375q0.609375 0 1.125 -0.28125q0.515625 -0.28125 0.8125 -0.828125q0.3125 -0.546875 0.3125 -1.28125q0 -0.71875 -0.3125 -1.265625q-0.296875 -0.5468731 -0.8125 -0.8281231q-0.515625 -0.296875 -1.125 -0.296875q-0.609375 0 -1.125 0.296875q-0.5 0.28125 -0.8125 0.8281231q-0.3125 0.546875 -0.3125 1.265625q0 0.71875 0.3125 1.28125q0.3125 0.546875 0.8125 0.828125q0.515625 0.28125 1.125 0.28125zm5.789398 -6.468748l1.953125 0l0 1.015625l0.140625 0q0.359375 -0.59375 1.03125 -0.9375q0.671875 -0.34375 1.453125 -0.34375q1.484375 0 2.25 0.90625q0.765625 0.890625 0.765625 2.437498l0 5.078125l-2.09375 0l0 -4.8125q0 -0.78125 -0.40625 -1.2187481q-0.390625 -0.4375 -1.109375 -0.4375q-0.859375 0 -1.375 0.65625q-0.515625 0.6562481 -0.515625 1.6562481l0 4.15625l-2.09375 0l0 -8.156248z" fill-rule="nonzero"/><path fill="#f86734" d="m189.8661 80.460884l0 0c0 -2.0114288 1.6305695 -3.642006 3.6419983 -3.642006l150.07033 0c0.96591187 0 1.892273 0.38370514 2.5752869 1.066719c0.6830139 0.6830063 1.0667114 1.6093674 1.0667114 2.5752869l0 33.97583c0 2.0114212 -1.6305847 3.642006 -3.6419983 3.642006l-150.07033 0c-2.0114288 0 -3.6419983 -1.6305847 -3.6419983 -3.642006z" fill-rule="evenodd"/><path fill="#ffffff" d="m243.51971 91.855675l2.15625 0l0 9.40625l4.84375 0l0 2.046875l-7.0 0l0 -11.453125zm11.01915 11.703125q-1.296875 0 -2.125 -0.75q-0.828125 -0.765625 -0.828125 -2.0q0 -0.8125 0.421875 -1.4375q0.4375 -0.625 1.1875 -0.953125q0.75 -0.34375 1.671875 -0.34375q1.2656097 0 2.1562347 0.375l0 -0.359375q0 -0.671875 -0.515625 -1.078125q-0.5 -0.421875 -1.3437347 -0.421875q-0.578125 0 -1.109375 0.265625q-0.53125 0.265625 -0.890625 0.6875l-1.34375 -1.046875q0.59375 -0.765625 1.484375 -1.1875q0.90625 -0.421875 1.953125 -0.421875q1.8749847 0 2.8437347 0.875q0.984375 0.859375 0.984375 2.515625l0 5.03125l-2.0625 0l0 -0.828125l-0.125 0q-0.375 0.46875 -0.98435974 0.78125q-0.59375 0.296875 -1.375 0.296875zm0.5 -1.625q0.90625 0 1.4374847 -0.578125q0.546875 -0.59375 0.546875 -1.375q-0.8125 -0.390625 -1.7187347 -0.390625q-1.625 0 -1.625 1.21875q0 0.5 0.34375 0.8125q0.359375 0.3125 1.015625 0.3125zm8.362869 0.984375l-3.4375 -7.765625l2.390625 0l2.109375 5.0625l0.125 0l2.03125 -5.0625l2.34375 0l-5.046875 11.609375l-2.25 0l1.734375 -3.84375zm10.287384 0.640625q-1.265625 0 -2.25 -0.5625q-0.984375 -0.5625 -1.546875 -1.546875q-0.546875 -0.984375 -0.546875 -2.21875q0 -1.21875 0.546875 -2.203125q0.5625 -1.0 1.546875 -1.5625q0.984375 -0.578125 2.25 -0.578125q1.25 0 2.234375 0.578125q1.0 0.5625 1.546875 1.5625q0.5625 0.984375 0.5625 2.203125q0 1.234375 -0.5625 2.21875q-0.546875 0.984375 -1.546875 1.546875q-0.984375 0.5625 -2.234375 0.5625zm0 -1.9375q0.609375 0 1.125 -0.28125q0.515625 -0.28125 0.8125 -0.828125q0.3125 -0.546875 0.3125 -1.28125q0 -0.71875 -0.3125 -1.265625q-0.296875 -0.546875 -0.8125 -0.828125q-0.515625 -0.296875 -1.125 -0.296875q-0.609375 0 -1.125 0.296875q-0.5 0.28125 -0.8125 0.828125q-0.3125 0.546875 -0.3125 1.265625q0 0.71875 0.3125 1.28125q0.3125 0.546875 0.8125 0.828125q0.515625 0.28125 1.125 0.28125zm8.806915 1.9375q-1.46875 0 -2.25 -0.90625q-0.765625 -0.90625 -0.765625 -2.546875l0 -4.953125l2.109375 0l0 4.703125q0 0.828125 0.390625 1.296875q0.40625 0.46875 1.0625 0.46875q0.890625 0 1.421875 -0.640625q0.53125 -0.65625 0.53125 -1.671875l0 -4.15625l2.09375 0l0 8.15625l-1.96875 0l0 -1.03125l-0.125 0q-0.375 0.59375 -1.046875 0.9375q-0.65625 0.34375 -1.453125 0.34375zm10.273376 -0.125q-0.609375 0 -1.125 -0.171875q-0.515625 -0.1875 -0.828125 -0.515625q-0.75 -0.71875 -0.75 -2.046875l0 -3.765625l-1.421875 0l0 -1.78125l1.421875 0l0 -2.3125l2.09375 0l0 2.3125l2.0 0l0 1.78125l-2.0 0l0 3.390625q0 0.609375 0.265625 0.890625q0.234375 0.25 0.78125 0.25q0.296875 0 0.5 -0.078125q0.203125 -0.078125 0.515625 -0.265625l0 2.046875q-0.6875 0.265625 -1.453125 0.265625z" fill-rule="nonzero"/><path fill="#073042" d="m189.8661 146.00945l0 0c0 -2.0114288 1.6305695 -3.6420135 3.6419983 -3.6420135l150.07033 0c0.96591187 0 1.892273 0.38371277 2.5752869 1.0667267c0.6830139 0.68299866 1.0667114 1.6093597 1.0667114 2.5752869l0 33.97583c0 2.0114136 -1.6305847 3.6419983 -3.6419983 3.6419983l-150.07033 0c-2.0114288 0 -3.6419983 -1.6305847 -3.6419983 -3.6419983z" fill-rule="evenodd"/><path fill="#ffffff" d="m237.8077 157.40422l3.875 0q1.78125 0 3.109375 0.71875q1.328125 0.71875 2.046875 2.015625q0.734375 1.296875 0.734375 2.984375q0 1.703125 -0.734375 3.0q-0.71875 1.296875 -2.046875 2.015625q-1.328125 0.71875 -3.109375 0.71875l-3.875 0l0 -11.453125zm3.78125 9.40625q1.84375 0 2.8125 -0.984375q0.984375 -0.984375 0.984375 -2.703125q0 -1.703125 -0.984375 -2.6875q-0.96875 -0.984375 -2.8125 -0.984375l-1.625 0l0 7.359375l1.625 0zm7.425522 -6.109375l1.953125 0l0 1.078125l0.140625 0q0.296875 -0.5625 0.9375 -0.9375q0.640625 -0.390625 1.40625 -0.390625q0.5625 0 1.03125 0.1875l0 2.09375q-0.4375 -0.15625 -0.734375 -0.234375q-0.296875 -0.078125 -0.625 -0.078125q-0.9375 0 -1.484375 0.671875q-0.53125 0.671875 -0.53125 1.703125l0 4.0625l-2.09375 0l0 -8.15625zm9.060394 8.40625q-1.296875 0 -2.125 -0.75q-0.828125 -0.765625 -0.828125 -2.0q0 -0.8125 0.421875 -1.4375q0.4375 -0.625 1.1875 -0.953125q0.75 -0.34375 1.671875 -0.34375q1.265625 0 2.15625 0.375l0 -0.359375q0 -0.671875 -0.515625 -1.078125q-0.5 -0.421875 -1.34375 -0.421875q-0.578125 0 -1.109375 0.265625q-0.53125 0.265625 -0.890625 0.6875l-1.34375 -1.046875q0.59375 -0.765625 1.484375 -1.1875q0.90625 -0.421875 1.953125 -0.421875q1.875 0 2.84375 0.875q0.984375 0.859375 0.984375 2.515625l0 5.03125l-2.0625 0l0 -0.828125l-0.125 0q-0.375 0.46875 -0.984375 0.78125q-0.59375 0.296875 -1.375 0.296875zm0.5 -1.625q0.90625 0 1.4375 -0.578125q0.546875 -0.59375 0.546875 -1.375q-0.8125 -0.390625 -1.71875 -0.390625q-1.625 0 -1.625 1.21875q0 0.5 0.34375 0.8125q0.359375 0.3125 1.015625 0.3125zm4.9097595 -6.78125l2.359375 0l1.40625 5.296875l0.109375 0l1.625 -5.296875l2.15625 0l1.625 5.296875l0.109375 0l1.40625 -5.296875l2.328125 0l-2.609375 8.15625l-2.25 0l-1.671875 -5.28125l-0.109375 0l-1.65625 5.28125l-2.234375 0l-2.59375 -8.15625zm15.421783 -0.90625q-0.5625 0 -0.96875 -0.390625q-0.390625 -0.40625 -0.390625 -0.96875q0 -0.546875 0.390625 -0.9375q0.40625 -0.40625 0.96875 -0.40625q0.5625 0 0.953125 0.40625q0.390625 0.390625 0.390625 0.9375q0 0.5625 -0.390625 0.96875q-0.390625 0.390625 -0.953125 0.390625zm-1.046875 0.90625l2.09375 0l0 8.15625l-2.09375 0l0 -8.15625zm4.2750244 0l1.953125 0l0 1.015625l0.140625 0q0.359375 -0.59375 1.03125 -0.9375q0.671875 -0.34375 1.453125 -0.34375q1.484375 0 2.25 0.90625q0.765625 0.890625 0.765625 2.4375l0 5.078125l-2.09375 0l0 -4.8125q0 -0.78125 -0.40625 -1.21875q-0.390625 -0.4375 -1.109375 -0.4375q-0.859375 0 -1.375 0.65625q-0.515625 0.65625 -0.515625 1.65625l0 4.15625l-2.09375 0l0 -8.15625zm13.253998 11.875q-1.546875 0 -2.578125 -0.703125q-1.015625 -0.703125 -1.375 -1.671875l1.96875 -0.796875q0.265625 0.609375 0.78125 0.953125q0.53125 0.359375 1.203125 0.359375q1.0 0 1.578125 -0.609375q0.578125 -0.609375 0.578125 -1.734375l0 -0.640625l-0.125 0q-0.375 0.546875 -1.0 0.84375q-0.625 0.28125 -1.421875 0.28125q-1.015625 0 -1.890625 -0.515625q-0.875 -0.53125 -1.40625 -1.46875q-0.515625 -0.953125 -0.515625 -2.21875q0 -1.265625 0.515625 -2.21875q0.53125 -0.953125 1.40625 -1.46875q0.875 -0.53125 1.890625 -0.53125q0.796875 0 1.421875 0.296875q0.625 0.28125 1.0 0.828125l0.125 0l0 -0.859375l2.015625 0l0 7.59375q0 1.3125 -0.515625 2.265625q-0.5 0.96875 -1.453125 1.484375q-0.9375 0.53125 -2.203125 0.53125zm0.03125 -5.625q0.890625 0 1.5 -0.609375q0.625 -0.625 0.625 -1.6875q0 -1.109375 -0.609375 -1.703125q-0.609375 -0.609375 -1.515625 -0.609375q-0.890625 0 -1.515625 0.609375q-0.625 0.609375 -0.625 1.703125q0 1.078125 0.625 1.6875q0.625 0.609375 1.515625 0.609375z" fill-rule="nonzero"/><path fill="#000000" fill-opacity="0.0" d="m268.54327 52.530163l0 24.283466" fill-rule="evenodd"/><path stroke="#4285f4" stroke-width="2.0" stroke-miterlimit="400.0" stroke-linecap="butt" d="m268.54327 52.530163l0 12.283466" fill-rule="evenodd"/><path fill="#4285f4" stroke="#4285f4" stroke-width="2.0" stroke-linecap="butt" d="m265.2398 64.81363l3.3034668 9.076195l3.3034668 -9.076195z" fill-rule="evenodd"/><path fill="#000000" fill-opacity="0.0" d="m268.54327 118.07872l0 24.283463" fill-rule="evenodd"/><path stroke="#f86734" stroke-width="2.0" stroke-miterlimit="400.0" stroke-linecap="butt" d="m268.54327 118.07872l0 12.283463" fill-rule="evenodd"/><path fill="#f86734" stroke="#f86734" stroke-width="2.0" stroke-linecap="butt" d="m265.2398 130.36218l3.3034668 9.076202l3.3034668 -9.076202z" fill-rule="evenodd"/><path fill="#000000" fill-opacity="0.0" d="m172.90552 194.89764c-13.35051 0 -24.173233 -10.822723 -24.173233 -24.173233l0 -49.102364c0 -13.350502 -10.822723 -24.173225 -24.173233 -24.173225l0 0c13.35051 0 24.173233 -10.822723 24.173233 -24.173233l0 -49.10236l0 0c0 -13.350506 10.822723 -24.17323 24.173233 -24.17323z" fill-rule="evenodd"/><path fill="#000000" fill-opacity="0.0" d="m172.90552 194.89764c-13.35051 0 -24.173233 -10.822723 -24.173233 -24.173233l0 -49.102364c0 -13.350502 -10.822723 -24.173225 -24.173233 -24.173225l0 0c13.35051 0 24.173233 -10.822723 24.173233 -24.173233l0 -49.10236l0 0c0 -13.350506 10.822723 -24.17323 24.173233 -24.17323" fill-rule="evenodd"/><path stroke="#595959" stroke-width="1.0" stroke-linejoin="round" stroke-linecap="butt" d="m172.90552 194.89764c-13.35051 0 -24.173233 -10.822723 -24.173233 -24.173233l0 -49.102364c0 -13.350502 -10.822723 -24.173225 -24.173233 -24.173225l0 0c13.35051 0 24.173233 -10.822723 24.173233 -24.173233l0 -49.10236l0 0c0 -13.350506 10.822723 -24.17323 24.173233 -24.17323" fill-rule="evenodd"/><path fill="#000000" fill-opacity="0.0" d="m-7.874016E-7 67.30708l144.28346 0l0 60.28347l-144.28346 0z" fill-rule="evenodd"/><path fill="#434343" d="m48.518684 97.44756l-4.796875 0l0 6.28125l-1.796875 0l0 -14.21875l7.40625 0l0 1.546875l-5.609375 0l0 4.859375l4.796875 0l0 1.53125zm6.8867188 -2.671875q-0.359375 -0.0625 -0.78125 -0.0625q-1.328125 0 -1.859375 1.453125l0 7.5625l-1.71875 0l0 -10.5625l1.671875 0l0.03125 1.0625q0.6875 -1.265625 1.96875 -1.265625q0.40625 0 0.671875 0.140625l0.015625 1.671875zm6.7714844 8.953125q-0.15625 -0.34375 -0.234375 -1.15625q-0.90625 1.359375 -2.34375 1.359375q-1.4375 0 -2.25 -0.8125q-0.796875 -0.8125 -0.796875 -2.265625q0 -1.625 1.09375 -2.5625q1.09375 -0.953125 3.0 -0.96875l1.265625 0l0 -1.125q0 -0.953125 -0.421875 -1.34375q-0.40625 -0.40625 -1.265625 -0.40625q-0.78125 0 -1.28125 0.46875q-0.484375 0.46875 -0.484375 1.171875l-1.71875 0q0 -0.8125 0.46875 -1.546875q0.484375 -0.734375 1.296875 -1.15625q0.8125 -0.421875 1.796875 -0.421875q1.625 0 2.46875 0.8125q0.84375 0.796875 0.859375 2.34375l0 5.328125q0.015625 1.21875 0.34375 2.125l0 0.15625l-1.796875 0zm-2.3125 -1.375q0.640625 0 1.21875 -0.34375q0.578125 -0.359375 0.828125 -0.890625l0 -2.515625l-0.96875 0q-1.234375 0.015625 -1.953125 0.546875q-0.703125 0.53125 -0.703125 1.484375q0 0.90625 0.359375 1.3125q0.359375 0.40625 1.21875 0.40625zm8.080078 -9.1875l0.03125 0.96875q0.96875 -1.171875 2.5625 -1.171875q1.765625 0 2.46875 1.53125q0.984375 -1.53125 2.765625 -1.53125q2.921875 0 2.984375 3.640625l0 7.125l-1.71875 0l0 -6.953125q0 -1.15625 -0.40625 -1.71875q-0.40625 -0.5625 -1.390625 -0.5625q-0.78125 0 -1.265625 0.609375q-0.484375 0.609375 -0.5625 1.546875l0 7.078125l-1.734375 0l0 -7.03125q-0.03125 -2.203125 -1.796875 -2.203125q-1.296875 0 -1.84375 1.3125l0 7.921875l-1.71875 0l0 -10.5625l1.625 0zm17.189453 10.765625q-1.96875 0 -3.03125 -1.171875q-1.046875 -1.1875 -1.0625 -3.46875l0 -1.28125q0 -2.359375 1.03125 -3.703125q1.03125 -1.34375 2.875 -1.34375q1.859375 0 2.765625 1.1875q0.921875 1.171875 0.9375 3.671875l0 1.140625l-5.890625 0l0 0.25q0 1.6875 0.640625 2.46875q0.640625 0.765625 1.84375 0.765625q0.75 0 1.328125 -0.28125q0.59375 -0.296875 1.09375 -0.921875l0.90625 1.09375q-1.125 1.59375 -3.4375 1.59375zm-0.1875 -9.484375q-1.078125 0 -1.59375 0.75q-0.515625 0.734375 -0.578125 2.28125l4.15625 0l0 -0.234375q-0.078125 -1.5 -0.546875 -2.140625q-0.46875 -0.65625 -1.4375 -0.65625zm15.3671875 9.28125l-1.75 0l0 -12.046875l-2.984375 1.34375l0 -1.640625l4.453125 -1.9375l0.28125 0l0 14.28125z" fill-rule="nonzero"/><path fill="#ffffff" d="m524.6011 244.85272l0 0c0 -2.265503 1.8365479 -4.102066 4.102051 -4.102066l201.78009 0c1.0879517 0 2.1313477 0.43217468 2.9006348 1.2014618c0.7692871 0.7692871 1.201477 1.8126678 1.201477 2.9006042l0 38.37854c0 2.265503 -1.8366089 4.1020813 -4.102112 4.1020813l-201.78009 0l0 0c-2.265503 0 -4.102051 -1.8365784 -4.102051 -4.1020813z" fill-rule="evenodd"/><path stroke="#4285f4" stroke-width="4.0" stroke-miterlimit="400.0" stroke-linecap="butt" d="m524.6011 244.85272l0 0c0 -2.265503 1.8365479 -4.102066 4.102051 -4.102066l201.78009 0c1.0879517 0 2.1313477 0.43217468 2.9006348 1.2014618c0.7692871 0.7692871 1.201477 1.8126678 1.201477 2.9006042l0 38.37854c0 2.265503 -1.8366089 4.1020813 -4.102112 4.1020813l-201.78009 0l0 0c-2.265503 0 -4.102051 -1.8365784 -4.102051 -4.1020813z" fill-rule="evenodd"/><path fill="#000000" d="m575.20105 260.54263q-0.484375 0 -0.828125 -0.34375q-0.34375 -0.34375 -0.34375 -0.828125q0 -0.484375 0.34375 -0.8125q0.34375 -0.34375 0.828125 -0.34375q0.484375 0 0.828125 0.34375q0.34375 0.328125 0.34375 0.8125q0 0.484375 -0.34375 0.828125q-0.34375 0.34375 -0.828125 0.34375zm-0.859375 1.203125l1.71875 0l0 8.15625l-1.71875 0l0 -8.15625zm3.875 0l1.625 0l0 1.109375l0.09375 0q0.375 -0.59375 1.046875 -0.984375q0.671875 -0.390625 1.46875 -0.390625q0.875 0 1.515625 0.421875q0.65625 0.421875 0.953125 1.109375q0.421875 -0.6875 1.109375 -1.109375q0.703125 -0.421875 1.65625 -0.421875q1.40625 0 2.125 0.859375q0.71875 0.859375 0.71875 2.328125l0 5.234375l-1.71875 0l0 -4.9375q0 -1.890625 -1.59375 -1.890625q-0.875 0 -1.4375 0.703125q-0.546875 0.703125 -0.546875 1.75l0 4.375l-1.71875 0l0 -4.9375q0 -1.890625 -1.640625 -1.890625q-0.84375 0 -1.390625 0.71875q-0.546875 0.703125 -0.546875 1.75l0 4.359375l-1.71875 0l0 -8.15625zm16.754944 8.40625q-0.875 0 -1.5625 -0.34375q-0.6875 -0.34375 -1.078125 -0.96875q-0.375 -0.625 -0.375 -1.421875q0 -0.84375 0.4375 -1.453125q0.453125 -0.625 1.21875 -0.953125q0.765625 -0.328125 1.71875 -0.328125q0.71875 0 1.296875 0.140625q0.59375 0.140625 0.9375 0.3125l0 -0.4375q0 -0.78125 -0.578125 -1.265625q-0.5625 -0.484375 -1.484375 -0.484375q-0.625 0 -1.1875 0.28125q-0.546875 0.265625 -0.890625 0.75l-1.1875 -0.90625q0.53125 -0.75 1.40625 -1.171875q0.875 -0.421875 1.90625 -0.421875q1.765625 0 2.734375 0.875q0.96875 0.875 0.96875 2.4375l0 5.109375l-1.6875 0l0 -1.015625l-0.09375 0q-0.34375 0.546875 -1.0 0.90625q-0.65625 0.359375 -1.5 0.359375zm0.3125 -1.40625q0.640625 0 1.15625 -0.3125q0.53125 -0.3125 0.828125 -0.828125q0.296875 -0.53125 0.296875 -1.140625q-0.375 -0.21875 -0.875 -0.34375q-0.5 -0.140625 -1.046875 -0.140625q-1.0 0 -1.484375 0.40625q-0.46875 0.390625 -0.46875 1.046875q0 0.578125 0.4375 0.953125q0.4375 0.359375 1.15625 0.359375zm9.468506 4.875q-1.484375 0 -2.46875 -0.6875q-0.984375 -0.671875 -1.328125 -1.640625l1.609375 -0.671875q0.25 0.65625 0.828125 1.046875q0.59375 0.40625 1.359375 0.40625q1.140625 0 1.78125 -0.671875q0.640625 -0.671875 0.640625 -1.90625l0 -0.78125l-0.09375 0q-0.40625 0.59375 -1.078125 0.9375q-0.671875 0.328125 -1.53125 0.328125q-1.046875 0 -1.921875 -0.515625q-0.875 -0.53125 -1.390625 -1.5q-0.515625 -0.96875 -0.515625 -2.21875q0 -1.25 0.515625 -2.21875q0.515625 -0.96875 1.390625 -1.5q0.875 -0.546875 1.921875 -0.546875q0.84375 0 1.515625 0.34375q0.6875 0.34375 1.09375 0.9375l0.09375 0l0 -1.015625l1.640625 0l0 7.71875q0 1.3125 -0.515625 2.25q-0.5 0.9375 -1.421875 1.421875q-0.921875 0.484375 -2.125 0.484375zm0.015625 -5.203125q0.65625 0 1.203125 -0.3125q0.546875 -0.328125 0.875 -0.921875q0.328125 -0.609375 0.328125 -1.4375q0 -0.859375 -0.328125 -1.453125q-0.328125 -0.609375 -0.875 -0.921875q-0.546875 -0.3125 -1.203125 -0.3125q-0.65625 0 -1.21875 0.3125q-0.546875 0.3125 -0.875 0.921875q-0.328125 0.59375 -0.328125 1.453125q0 0.828125 0.328125 1.4375q0.328125 0.609375 0.875 0.921875q0.5625 0.3125 1.21875 0.3125zm9.711243 1.734375q-1.1875 0 -2.140625 -0.546875q-0.953125 -0.5625 -1.484375 -1.546875q-0.53125 -0.984375 -0.53125 -2.21875q0 -1.171875 0.515625 -2.171875q0.515625 -1.0 1.4375 -1.59375q0.9375 -0.59375 2.109375 -0.59375q1.234375 0 2.125 0.546875q0.890625 0.53125 1.359375 1.484375q0.484375 0.9375 0.484375 2.140625q0 0.3125 -0.03125 0.53125l-6.3125 0q0.125 1.171875 0.84375 1.8125q0.71875 0.625 1.671875 0.625q0.78125 0 1.34375 -0.359375q0.5625 -0.359375 0.90625 -0.953125l1.421875 0.6875q-0.5625 1.015625 -1.5 1.59375q-0.921875 0.5625 -2.21875 0.5625zm2.15625 -5.265625q-0.03125 -0.4375 -0.28125 -0.890625q-0.25 -0.453125 -0.75 -0.734375q-0.484375 -0.296875 -1.203125 -0.296875q-0.859375 0 -1.46875 0.53125q-0.59375 0.515625 -0.8125 1.390625l4.515625 0zm3.6062622 -6.4375l1.765625 0l0 4.765625l5.359375 0l0 -4.765625l1.734375 0l0 11.453125l-1.734375 0l0 -5.03125l-5.359375 0l0 5.03125l-1.765625 0l0 -11.453125zm14.7335205 11.703125q-1.1875 0 -2.140625 -0.546875q-0.953125 -0.5625 -1.484375 -1.546875q-0.53125 -0.984375 -0.53125 -2.21875q0 -1.171875 0.515625 -2.171875q0.515625 -1.0 1.4375 -1.59375q0.9375 -0.59375 2.109375 -0.59375q1.234375 0 2.125 0.546875q0.890625 0.53125 1.359375 1.484375q0.484375 0.9375 0.484375 2.140625q0 0.3125 -0.03125 0.53125l-6.3125 0q0.125 1.171875 0.84375 1.8125q0.71875 0.625 1.671875 0.625q0.78125 0 1.34375 -0.359375q0.5625 -0.359375 0.90625 -0.953125l1.421875 0.6875q-0.5625 1.015625 -1.5 1.59375q-0.921875 0.5625 -2.21875 0.5625zm2.15625 -5.265625q-0.03125 -0.4375 -0.28125 -0.890625q-0.25 -0.453125 -0.75 -0.734375q-0.484375 -0.296875 -1.203125 -0.296875q-0.859375 0 -1.46875 0.53125q-0.59375 0.515625 -0.8125 1.390625l4.515625 0zm4.309387 -4.34375q-0.484375 0 -0.828125 -0.34375q-0.34375 -0.34375 -0.34375 -0.828125q0 -0.484375 0.34375 -0.8125q0.34375 -0.34375 0.828125 -0.34375q0.484375 0 0.828125 0.34375q0.34375 0.328125 0.34375 0.8125q0 0.484375 -0.34375 0.828125q-0.34375 0.34375 -0.828125 0.34375zm-0.859375 1.203125l1.71875 0l0 8.15625l-1.71875 0l0 -8.15625zm7.466919 11.875q-1.484375 0 -2.46875 -0.6875q-0.984375 -0.671875 -1.328125 -1.640625l1.609375 -0.671875q0.25 0.65625 0.828125 1.046875q0.59375 0.40625 1.359375 0.40625q1.140625 0 1.78125 -0.671875q0.640625 -0.671875 0.640625 -1.90625l0 -0.78125l-0.09375 0q-0.40625 0.59375 -1.078125 0.9375q-0.671875 0.328125 -1.53125 0.328125q-1.046875 0 -1.921875 -0.515625q-0.875 -0.53125 -1.390625 -1.5q-0.515625 -0.96875 -0.515625 -2.21875q0 -1.25 0.515625 -2.21875q0.515625 -0.96875 1.390625 -1.5q0.875 -0.546875 1.921875 -0.546875q0.84375 0 1.515625 0.34375q0.6875 0.34375 1.09375 0.9375l0.09375 0l0 -1.015625l1.640625 0l0 7.71875q0 1.3125 -0.515625 2.25q-0.5 0.9375 -1.421875 1.421875q-0.921875 0.484375 -2.125 0.484375zm0.015625 -5.203125q0.65625 0 1.203125 -0.3125q0.546875 -0.328125 0.875 -0.921875q0.328125 -0.609375 0.328125 -1.4375q0 -0.859375 -0.328125 -1.453125q-0.328125 -0.609375 -0.875 -0.921875q-0.546875 -0.3125 -1.203125 -0.3125q-0.65625 0 -1.21875 0.3125q-0.546875 0.3125 -0.875 0.921875q-0.328125 0.59375 -0.328125 1.453125q0 0.828125 0.328125 1.4375q0.328125 0.609375 0.875 0.921875q0.5625 0.3125 1.21875 0.3125zm6.07251 -9.96875l1.71875 0l0 3.140625l-0.09375 1.265625l0.09375 0q0.359375 -0.59375 1.046875 -0.984375q0.703125 -0.390625 1.53125 -0.390625q1.484375 0 2.265625 0.890625q0.796875 0.890625 0.796875 2.375l0 5.15625l-1.71875 0l0 -4.921875q0 -0.953125 -0.515625 -1.421875q-0.5 -0.484375 -1.28125 -0.484375q-0.59375 0 -1.078125 0.34375q-0.484375 0.34375 -0.765625 0.921875q-0.28125 0.578125 -0.28125 1.203125l0 4.359375l-1.71875 0l0 -11.453125zm12.27179 11.578125q-0.546875 0 -1.03125 -0.15625q-0.46875 -0.171875 -0.765625 -0.484375q-0.6875 -0.65625 -0.6875 -1.859375l0 -4.28125l-1.421875 0l0 -1.5l1.421875 0l0 -2.3125l1.71875 0l0 2.3125l2.0 0l0 1.5l-2.0 0l0 3.921875q0 0.671875 0.265625 0.9375q0.265625 0.3125 0.828125 0.3125q0.28125 0 0.484375 -0.0625q0.21875 -0.078125 0.46875 -0.25l0 1.6875q-0.53125 0.234375 -1.28125 0.234375zm3.2095337 -11.578125l3.9375 0q1.015625 0 1.875 0.453125q0.859375 0.4375 1.359375 1.25q0.5 0.796875 0.5 1.796875q0 1.015625 -0.5 1.8125q-0.5 0.796875 -1.359375 1.25q-0.859375 0.4375 -1.875 0.4375l-2.171875 0l0 4.453125l-1.765625 0l0 -11.453125zm3.984375 5.34375q0.875 0 1.40625 -0.546875q0.546875 -0.5625 0.546875 -1.296875q0 -0.734375 -0.546875 -1.28125q-0.53125 -0.5625 -1.40625 -0.5625l-2.21875 0l0 3.6875l2.21875 0zm7.284851 1.96875l-2.828125 -4.015625l2.0 0l1.828125 2.6875l0.046875 0l1.75 -2.6875l2.078125 0l-2.859375 4.015625l2.875 4.140625l-2.015625 0l-1.859375 -2.765625l-0.046875 0l-1.8125 2.765625l-2.03125 0l2.875 -4.140625z" fill-rule="nonzero"/><path fill="#000000" fill-opacity="0.0" d="m347.22043 97.4488c141.18109 0 282.3622 71.65354 282.3622 143.3071" fill-rule="evenodd"/><path stroke="#f86734" stroke-width="2.0" stroke-linejoin="round" stroke-linecap="butt" d="m347.22043 97.4488c70.590546 0 141.18109 17.913383 194.124 44.78347c26.471497 13.435028 48.531006 29.109253 63.972717 45.903046c7.720825 8.396896 13.78717 17.0737 17.9234 25.890442c2.0680542 4.408386 3.6535645 8.85173 4.722107 13.312576c0.06677246 0.2788086 0.13153076 0.5576782 0.1942749 0.83662415l0.14141846 0.6498413" fill-rule="evenodd"/><path fill="#f86734" stroke="#f86734" stroke-width="2.0" stroke-linecap="butt" d="m625.0138 229.17838l4.2559204 8.670502l2.3131104 -9.3776245z" fill-rule="evenodd"/><path fill="#000000" fill-opacity="0.0" d="m524.6011 264.042l-177.38586 2.6456604" fill-rule="evenodd"/><path stroke="#4285f4" stroke-width="2.0" stroke-miterlimit="400.0" stroke-linecap="butt" d="m524.6011 264.042l-165.3872 2.4667358" fill-rule="evenodd"/><path fill="#4285f4" stroke="#4285f4" stroke-width="2.0" stroke-linecap="butt" d="m359.1646 263.2056l-9.025909 3.4384766l9.124451 3.1677246z" fill-rule="evenodd"/><path fill="#4285f4" d="m189.8661 249.71547l0 0c0 -2.0114136 1.6305695 -3.6419983 3.6419983 -3.6419983l150.07033 0c0.96591187 0 1.892273 0.38371277 2.5752869 1.0667114c0.6830139 0.6830139 1.0667114 1.609375 1.0667114 2.5752869l0 33.975845c0 2.0114136 -1.6305847 3.6419983 -3.6419983 3.6419983l-150.07033 0c-2.0114288 0 -3.6419983 -1.6305847 -3.6419983 -3.6419983z" fill-rule="evenodd"/><path fill="#ffffff" d="m226.07753 272.8134q-1.65625 0 -3.046875 -0.78125q-1.375 -0.796875 -2.171875 -2.15625q-0.78125 -1.375 -0.78125 -3.046875q0 -1.65625 0.78125 -3.015625q0.796875 -1.375 2.171875 -2.171875q1.390625 -0.796875 3.046875 -0.796875q2.59375 0 4.296875 1.875l-1.53125 1.46875q-1.09375 -1.28125 -2.75 -1.28125q-1.0625 0 -1.953125 0.484375q-0.875 0.484375 -1.390625 1.390625q-0.5 0.890625 -0.5 2.046875q0 1.171875 0.5 2.078125q0.515625 0.890625 1.390625 1.375q0.890625 0.484375 1.953125 0.484375q1.8125 0 3.03125 -1.5l1.53125 1.453125q-0.84375 1.03125 -2.015625 1.5625q-1.15625 0.53125 -2.5625 0.53125zm9.867523 0q-1.265625 0 -2.25 -0.5625q-0.984375 -0.5625 -1.546875 -1.546875q-0.546875 -0.984375 -0.546875 -2.21875q0 -1.21875 0.546875 -2.203125q0.5625 -1.0 1.546875 -1.5625q0.984375 -0.578125 2.25 -0.578125q1.25 0 2.234375 0.578125q1.0 0.5625 1.546875 1.5625q0.5625 0.984375 0.5625 2.203125q0 1.234375 -0.5625 2.21875q-0.546875 0.984375 -1.546875 1.546875q-0.984375 0.5625 -2.234375 0.5625zm0 -1.9375q0.609375 0 1.125 -0.28125q0.515625 -0.28125 0.8125 -0.828125q0.3125 -0.546875 0.3125 -1.28125q0 -0.71875 -0.3125 -1.265625q-0.296875 -0.546875 -0.8125 -0.828125q-0.515625 -0.296875 -1.125 -0.296875q-0.609375 0 -1.125 0.296875q-0.5 0.28125 -0.8125 0.828125q-0.3125 0.546875 -0.3125 1.265625q0 0.71875 0.3125 1.28125q0.3125 0.546875 0.8125 0.828125q0.515625 0.28125 1.125 0.28125zm5.789398 -6.46875l1.953125 0l0 1.015625l0.140625 0q0.375 -0.59375 1.015625 -0.9375q0.65625 -0.34375 1.453125 -0.34375q0.875 0 1.515625 0.421875q0.640625 0.40625 0.90625 1.03125q0.40625 -0.640625 1.09375 -1.046875q0.703125 -0.40625 1.640625 -0.40625q1.390625 0 2.109375 0.859375q0.734375 0.859375 0.734375 2.3125l0 5.25l-2.078125 0l0 -4.859375q0 -0.765625 -0.359375 -1.1875q-0.359375 -0.421875 -1.0 -0.421875q-0.8125 0 -1.296875 0.65625q-0.484375 0.640625 -0.484375 1.703125l0 4.109375l-2.109375 0l0 -4.859375q0 -0.765625 -0.375 -1.1875q-0.375 -0.421875 -1.0625 -0.421875q-0.765625 0 -1.234375 0.65625q-0.46875 0.640625 -0.46875 1.703125l0 4.109375l-2.09375 0l0 -8.15625zm14.49791 0l1.96875 0l0 0.984375l0.140625 0q0.328125 -0.53125 0.96875 -0.890625q0.640625 -0.359375 1.46875 -0.359375q1.109375 0 2.015625 0.5625q0.90625 0.546875 1.40625 1.546875q0.515625 0.984375 0.515625 2.234375q0 1.265625 -0.515625 2.25q-0.5 0.984375 -1.40625 1.53125q-0.90625 0.546875 -2.015625 0.546875q-0.828125 0 -1.484375 -0.34375q-0.640625 -0.359375 -0.953125 -0.875l-0.140625 0l0.140625 1.140625l0 3.28125l-2.109375 0l0 -11.609375zm4.1875 6.46875q0.59375 0 1.09375 -0.296875q0.515625 -0.296875 0.8125 -0.84375q0.3125 -0.546875 0.3125 -1.25q0 -0.703125 -0.3125 -1.25q-0.296875 -0.546875 -0.8125 -0.84375q-0.5 -0.296875 -1.09375 -0.296875q-0.578125 0 -1.09375 0.296875q-0.515625 0.296875 -0.828125 0.84375q-0.296875 0.546875 -0.296875 1.25q0 0.703125 0.296875 1.25q0.3125 0.546875 0.828125 0.84375q0.515625 0.296875 1.09375 0.296875zm9.813263 1.9375q-1.265625 0 -2.25 -0.5625q-0.984375 -0.5625 -1.546875 -1.546875q-0.546875 -0.984375 -0.546875 -2.21875q0 -1.21875 0.546875 -2.203125q0.5625 -1.0 1.546875 -1.5625q0.984375 -0.578125 2.25 -0.578125q1.25 0 2.234375 0.578125q1.0 0.5625 1.546875 1.5625q0.5625 0.984375 0.5625 2.203125q0 1.234375 -0.5625 2.21875q-0.546875 0.984375 -1.546875 1.546875q-0.984375 0.5625 -2.234375 0.5625zm0 -1.9375q0.609375 0 1.125 -0.28125q0.515625 -0.28125 0.8125 -0.828125q0.3125 -0.546875 0.3125 -1.28125q0 -0.71875 -0.3125 -1.265625q-0.296875 -0.546875 -0.8125 -0.828125q-0.515625 -0.296875 -1.125 -0.296875q-0.609375 0 -1.125 0.296875q-0.5 0.28125 -0.8125 0.828125q-0.3125 0.546875 -0.3125 1.265625q0 0.71875 0.3125 1.28125q0.3125 0.546875 0.8125 0.828125q0.515625 0.28125 1.125 0.28125zm8.963165 1.9375q-1.484375 0 -2.40625 -0.59375q-0.921875 -0.609375 -1.28125 -1.59375l1.859375 -0.8125q0.265625 0.578125 0.734375 0.875q0.46875 0.296875 1.09375 0.296875q0.578125 0 0.953125 -0.1875q0.390625 -0.1875 0.390625 -0.609375q0 -0.390625 -0.359375 -0.59375q-0.34375 -0.203125 -1.046875 -0.359375l-0.953125 -0.203125q-1.0 -0.25 -1.65625 -0.875q-0.65625 -0.640625 -0.65625 -1.578125q0 -0.703125 0.421875 -1.265625q0.421875 -0.5625 1.15625 -0.859375q0.734375 -0.3125 1.609375 -0.3125q2.53125 0 3.375 1.78125l-1.796875 0.78125q-0.46875 -0.859375 -1.53125 -0.859375q-0.546875 0 -0.875 0.203125q-0.3125 0.203125 -0.3125 0.5q0 0.578125 1.09375 0.859375l1.203125 0.296875q1.21875 0.296875 1.828125 0.921875q0.609375 0.625 0.609375 1.53125q0 0.796875 -0.453125 1.390625q-0.453125 0.59375 -1.25 0.9375q-0.78125 0.328125 -1.75 0.328125zm6.078125 -9.3125q-0.5625 0 -0.96875 -0.390625q-0.390625 -0.40625 -0.390625 -0.96875q0 -0.546875 0.390625 -0.9375q0.40625 -0.40625 0.96875 -0.40625q0.5625 0 0.953125 0.40625q0.390625 0.390625 0.390625 0.9375q0 0.5625 -0.390625 0.96875q-0.390625 0.390625 -0.953125 0.390625zm-1.046875 0.90625l2.09375 0l0 8.15625l-2.09375 0l0 -8.15625zm7.7418823 8.28125q-0.609375 0 -1.125 -0.171875q-0.515625 -0.1875 -0.828125 -0.515625q-0.75 -0.71875 -0.75 -2.046875l0 -3.765625l-1.421875 0l0 -1.78125l1.421875 0l0 -2.3125l2.09375 0l0 2.3125l2.0 0l0 1.78125l-2.0 0l0 3.390625q0 0.609375 0.265625 0.890625q0.234375 0.25 0.78125 0.25q0.296875 0 0.5 -0.078125q0.203125 -0.078125 0.515625 -0.265625l0 2.046875q-0.6875 0.265625 -1.453125 0.265625zm4.393036 -9.1875q-0.5625 0 -0.96875 -0.390625q-0.390625 -0.40625 -0.390625 -0.96875q0 -0.546875 0.390625 -0.9375q0.40625 -0.40625 0.96875 -0.40625q0.5625 0 0.953125 0.40625q0.390625 0.390625 0.390625 0.9375q0 0.5625 -0.390625 0.96875q-0.390625 0.390625 -0.953125 0.390625zm-1.046875 0.90625l2.09375 0l0 8.15625l-2.09375 0l0 -8.15625zm8.085632 8.40625q-1.265625 0 -2.25 -0.5625q-0.984375 -0.5625 -1.546875 -1.546875q-0.546875 -0.984375 -0.546875 -2.21875q0 -1.21875 0.546875 -2.203125q0.5625 -1.0 1.546875 -1.5625q0.984375 -0.578125 2.25 -0.578125q1.25 0 2.234375 0.578125q1.0 0.5625 1.546875 1.5625q0.5625 0.984375 0.5625 2.203125q0 1.234375 -0.5625 2.21875q-0.546875 0.984375 -1.546875 1.546875q-0.984375 0.5625 -2.234375 0.5625zm0 -1.9375q0.609375 0 1.125 -0.28125q0.515625 -0.28125 0.8125 -0.828125q0.3125 -0.546875 0.3125 -1.28125q0 -0.71875 -0.3125 -1.265625q-0.296875 -0.546875 -0.8125 -0.828125q-0.515625 -0.296875 -1.125 -0.296875q-0.609375 0 -1.125 0.296875q-0.5 0.28125 -0.8125 0.828125q-0.3125 0.546875 -0.3125 1.265625q0 0.71875 0.3125 1.28125q0.3125 0.546875 0.8125 0.828125q0.515625 0.28125 1.125 0.28125zm5.789398 -6.46875l1.953125 0l0 1.015625l0.140625 0q0.359375 -0.59375 1.03125 -0.9375q0.671875 -0.34375 1.453125 -0.34375q1.484375 0 2.25 0.90625q0.765625 0.890625 0.765625 2.4375l0 5.078125l-2.09375 0l0 -4.8125q0 -0.78125 -0.40625 -1.21875q-0.390625 -0.4375 -1.109375 -0.4375q-0.859375 0 -1.375 0.65625q-0.515625 0.65625 -0.515625 1.65625l0 4.15625l-2.09375 0l0 -8.15625z" fill-rule="nonzero"/><path fill="#f86734" d="m189.8661 315.26404l0 0c0 -2.011444 1.6305695 -3.6419983 3.6419983 -3.6419983l150.07033 0c0.96591187 0 1.892273 0.3836975 2.5752869 1.0667114c0.6830139 0.6830139 1.0667114 1.609375 1.0667114 2.5752869l0 33.97583c0 2.0114136 -1.6305847 3.6419983 -3.6419983 3.6419983l-150.07033 0c-2.0114288 0 -3.6419983 -1.6305847 -3.6419983 -3.6419983z" fill-rule="evenodd"/><path fill="#ffffff" d="m243.51971 326.6588l2.15625 0l0 9.40625l4.84375 0l0 2.046875l-7.0 0l0 -11.453125zm11.01915 11.703125q-1.296875 0 -2.125 -0.75q-0.828125 -0.765625 -0.828125 -2.0q0 -0.8125 0.421875 -1.4375q0.4375 -0.625 1.1875 -0.953125q0.75 -0.34375 1.671875 -0.34375q1.2656097 0 2.1562347 0.375l0 -0.359375q0 -0.671875 -0.515625 -1.078125q-0.5 -0.421875 -1.3437347 -0.421875q-0.578125 0 -1.109375 0.265625q-0.53125 0.265625 -0.890625 0.6875l-1.34375 -1.046875q0.59375 -0.765625 1.484375 -1.1875q0.90625 -0.421875 1.953125 -0.421875q1.8749847 0 2.8437347 0.875q0.984375 0.859375 0.984375 2.515625l0 5.03125l-2.0625 0l0 -0.828125l-0.125 0q-0.375 0.46875 -0.98435974 0.78125q-0.59375 0.296875 -1.375 0.296875zm0.5 -1.625q0.90625 0 1.4374847 -0.578125q0.546875 -0.59375 0.546875 -1.375q-0.8125 -0.390625 -1.7187347 -0.390625q-1.625 0 -1.625 1.21875q0 0.5 0.34375 0.8125q0.359375 0.3125 1.015625 0.3125zm8.362869 0.984375l-3.4375 -7.765625l2.390625 0l2.109375 5.0625l0.125 0l2.03125 -5.0625l2.34375 0l-5.046875 11.609375l-2.25 0l1.734375 -3.84375zm10.287384 0.640625q-1.265625 0 -2.25 -0.5625q-0.984375 -0.5625 -1.546875 -1.546875q-0.546875 -0.984375 -0.546875 -2.21875q0 -1.21875 0.546875 -2.203125q0.5625 -1.0 1.546875 -1.5625q0.984375 -0.578125 2.25 -0.578125q1.25 0 2.234375 0.578125q1.0 0.5625 1.546875 1.5625q0.5625 0.984375 0.5625 2.203125q0 1.234375 -0.5625 2.21875q-0.546875 0.984375 -1.546875 1.546875q-0.984375 0.5625 -2.234375 0.5625zm0 -1.9375q0.609375 0 1.125 -0.28125q0.515625 -0.28125 0.8125 -0.828125q0.3125 -0.546875 0.3125 -1.28125q0 -0.71875 -0.3125 -1.265625q-0.296875 -0.546875 -0.8125 -0.828125q-0.515625 -0.296875 -1.125 -0.296875q-0.609375 0 -1.125 0.296875q-0.5 0.28125 -0.8125 0.828125q-0.3125 0.546875 -0.3125 1.265625q0 0.71875 0.3125 1.28125q0.3125 0.546875 0.8125 0.828125q0.515625 0.28125 1.125 0.28125zm8.806915 1.9375q-1.46875 0 -2.25 -0.90625q-0.765625 -0.90625 -0.765625 -2.546875l0 -4.953125l2.109375 0l0 4.703125q0 0.828125 0.390625 1.296875q0.40625 0.46875 1.0625 0.46875q0.890625 0 1.421875 -0.640625q0.53125 -0.65625 0.53125 -1.671875l0 -4.15625l2.09375 0l0 8.15625l-1.96875 0l0 -1.03125l-0.125 0q-0.375 0.59375 -1.046875 0.9375q-0.65625 0.34375 -1.453125 0.34375zm10.273376 -0.125q-0.609375 0 -1.125 -0.171875q-0.515625 -0.1875 -0.828125 -0.515625q-0.75 -0.71875 -0.75 -2.046875l0 -3.765625l-1.421875 0l0 -1.78125l1.421875 0l0 -2.3125l2.09375 0l0 2.3125l2.0 0l0 1.78125l-2.0 0l0 3.390625q0 0.609375 0.265625 0.890625q0.234375 0.25 0.78125 0.25q0.296875 0 0.5 -0.078125q0.203125 -0.078125 0.515625 -0.265625l0 2.046875q-0.6875 0.265625 -1.453125 0.265625z" fill-rule="nonzero"/><path fill="#073042" d="m189.8661 380.8126l0 0c0 -2.0114136 1.6305695 -3.6419983 3.6419983 -3.6419983l150.07033 0c0.96591187 0 1.892273 0.3836975 2.5752869 1.0667114c0.6830139 0.6830139 1.0667114 1.609375 1.0667114 2.5752869l0 33.97583c0 2.0114136 -1.6305847 3.6419983 -3.6419983 3.6419983l-150.07033 0c-2.0114288 0 -3.6419983 -1.6305847 -3.6419983 -3.6419983z" fill-rule="evenodd"/><path fill="#ffffff" d="m237.8077 392.20737l3.875 0q1.78125 0 3.109375 0.71875q1.328125 0.71875 2.046875 2.015625q0.734375 1.296875 0.734375 2.984375q0 1.703125 -0.734375 3.0q-0.71875 1.296875 -2.046875 2.015625q-1.328125 0.71875 -3.109375 0.71875l-3.875 0l0 -11.453125zm3.78125 9.40625q1.84375 0 2.8125 -0.984375q0.984375 -0.984375 0.984375 -2.703125q0 -1.703125 -0.984375 -2.6875q-0.96875 -0.984375 -2.8125 -0.984375l-1.625 0l0 7.359375l1.625 0zm7.425522 -6.109375l1.953125 0l0 1.078125l0.140625 0q0.296875 -0.5625 0.9375 -0.9375q0.640625 -0.390625 1.40625 -0.390625q0.5625 0 1.03125 0.1875l0 2.09375q-0.4375 -0.15625 -0.734375 -0.234375q-0.296875 -0.078125 -0.625 -0.078125q-0.9375 0 -1.484375 0.671875q-0.53125 0.671875 -0.53125 1.703125l0 4.0625l-2.09375 0l0 -8.15625zm9.060394 8.40625q-1.296875 0 -2.125 -0.75q-0.828125 -0.765625 -0.828125 -2.0q0 -0.8125 0.421875 -1.4375q0.4375 -0.625 1.1875 -0.953125q0.75 -0.34375 1.671875 -0.34375q1.265625 0 2.15625 0.375l0 -0.359375q0 -0.671875 -0.515625 -1.078125q-0.5 -0.421875 -1.34375 -0.421875q-0.578125 0 -1.109375 0.265625q-0.53125 0.265625 -0.890625 0.6875l-1.34375 -1.046875q0.59375 -0.765625 1.484375 -1.1875q0.90625 -0.421875 1.953125 -0.421875q1.875 0 2.84375 0.875q0.984375 0.859375 0.984375 2.515625l0 5.03125l-2.0625 0l0 -0.828125l-0.125 0q-0.375 0.46875 -0.984375 0.78125q-0.59375 0.296875 -1.375 0.296875zm0.5 -1.625q0.90625 0 1.4375 -0.578125q0.546875 -0.59375 0.546875 -1.375q-0.8125 -0.390625 -1.71875 -0.390625q-1.625 0 -1.625 1.21875q0 0.5 0.34375 0.8125q0.359375 0.3125 1.015625 0.3125zm4.9097595 -6.78125l2.359375 0l1.40625 5.296875l0.109375 0l1.625 -5.296875l2.15625 0l1.625 5.296875l0.109375 0l1.40625 -5.296875l2.328125 0l-2.609375 8.15625l-2.25 0l-1.671875 -5.28125l-0.109375 0l-1.65625 5.28125l-2.234375 0l-2.59375 -8.15625zm15.421783 -0.90625q-0.5625 0 -0.96875 -0.390625q-0.390625 -0.40625 -0.390625 -0.96875q0 -0.546875 0.390625 -0.9375q0.40625 -0.40625 0.96875 -0.40625q0.5625 0 0.953125 0.40625q0.390625 0.390625 0.390625 0.9375q0 0.5625 -0.390625 0.96875q-0.390625 0.390625 -0.953125 0.390625zm-1.046875 0.90625l2.09375 0l0 8.15625l-2.09375 0l0 -8.15625zm4.2750244 0l1.953125 0l0 1.015625l0.140625 0q0.359375 -0.59375 1.03125 -0.9375q0.671875 -0.34375 1.453125 -0.34375q1.484375 0 2.25 0.90625q0.765625 0.890625 0.765625 2.4375l0 5.078125l-2.09375 0l0 -4.8125q0 -0.78125 -0.40625 -1.21875q-0.390625 -0.4375 -1.109375 -0.4375q-0.859375 0 -1.375 0.65625q-0.515625 0.65625 -0.515625 1.65625l0 4.15625l-2.09375 0l0 -8.15625zm13.253998 11.875q-1.546875 0 -2.578125 -0.703125q-1.015625 -0.703125 -1.375 -1.671875l1.96875 -0.796875q0.265625 0.609375 0.78125 0.953125q0.53125 0.359375 1.203125 0.359375q1.0 0 1.578125 -0.609375q0.578125 -0.609375 0.578125 -1.734375l0 -0.640625l-0.125 0q-0.375 0.546875 -1.0 0.84375q-0.625 0.28125 -1.421875 0.28125q-1.015625 0 -1.890625 -0.515625q-0.875 -0.53125 -1.40625 -1.46875q-0.515625 -0.953125 -0.515625 -2.21875q0 -1.265625 0.515625 -2.21875q0.53125 -0.953125 1.40625 -1.46875q0.875 -0.53125 1.890625 -0.53125q0.796875 0 1.421875 0.296875q0.625 0.28125 1.0 0.828125l0.125 0l0 -0.859375l2.015625 0l0 7.59375q0 1.3125 -0.515625 2.265625q-0.5 0.96875 -1.453125 1.484375q-0.9375 0.53125 -2.203125 0.53125zm0.03125 -5.625q0.890625 0 1.5 -0.609375q0.625 -0.625 0.625 -1.6875q0 -1.109375 -0.609375 -1.703125q-0.609375 -0.609375 -1.515625 -0.609375q-0.890625 0 -1.515625 0.609375q-0.625 0.609375 -0.625 1.703125q0 1.078125 0.625 1.6875q0.625 0.609375 1.515625 0.609375z" fill-rule="nonzero"/><path fill="#000000" fill-opacity="0.0" d="m268.54327 287.3333l0 24.283478" fill-rule="evenodd"/><path stroke="#4285f4" stroke-width="2.0" stroke-miterlimit="400.0" stroke-linecap="butt" d="m268.54327 287.3333l0 12.283478" fill-rule="evenodd"/><path fill="#4285f4" stroke="#4285f4" stroke-width="2.0" stroke-linecap="butt" d="m265.2398 299.6168l3.3034668 9.076172l3.3034668 -9.076172z" fill-rule="evenodd"/><path fill="#000000" fill-opacity="0.0" d="m268.54327 352.88187l0 24.283478" fill-rule="evenodd"/><path stroke="#f86734" stroke-width="2.0" stroke-miterlimit="400.0" stroke-linecap="butt" d="m268.54327 352.88184l0 12.283478" fill-rule="evenodd"/><path fill="#f86734" stroke="#f86734" stroke-width="2.0" stroke-linecap="butt" d="m265.2398 365.1653l3.3034668 9.076202l3.3034668 -9.076202z" fill-rule="evenodd"/><path fill="#000000" fill-opacity="0.0" d="m172.90552 429.70078c-13.35051 0 -24.173233 -10.822723 -24.173233 -24.173218l0 -49.102356c0 -13.350525 -10.822723 -24.173218 -24.173233 -24.173218l0 0c13.35051 0 24.173233 -10.822723 24.173233 -24.173248l0 -49.102356l0 0c0 -13.35051 10.822723 -24.173233 24.173233 -24.173233z" fill-rule="evenodd"/><path fill="#000000" fill-opacity="0.0" d="m172.90552 429.70078c-13.35051 0 -24.173233 -10.822723 -24.173233 -24.173218l0 -49.102356c0 -13.350525 -10.822723 -24.173218 -24.173233 -24.173218l0 0c13.35051 0 24.173233 -10.822723 24.173233 -24.173248l0 -49.102356l0 0c0 -13.35051 10.822723 -24.173233 24.173233 -24.173233" fill-rule="evenodd"/><path stroke="#595959" stroke-width="1.0" stroke-linejoin="round" stroke-linecap="butt" d="m172.90552 429.70078c-13.35051 0 -24.173233 -10.822723 -24.173233 -24.173218l0 -49.102356c0 -13.350525 -10.822723 -24.173218 -24.173233 -24.173218l0 0c13.35051 0 24.173233 -10.822723 24.173233 -24.173248l0 -49.102356l0 0c0 -13.35051 10.822723 -24.173233 24.173233 -24.173233" fill-rule="evenodd"/><path fill="#000000" fill-opacity="0.0" d="m-7.874016E-7 302.11023l144.28346 0l0 60.283478l-144.28346 0z" fill-rule="evenodd"/><path fill="#434343" d="m48.518684 332.2507l-4.796875 0l0 6.28125l-1.796875 0l0 -14.21875l7.40625 0l0 1.546875l-5.609375 0l0 4.859375l4.796875 0l0 1.53125zm6.8867188 -2.671875q-0.359375 -0.0625 -0.78125 -0.0625q-1.328125 0 -1.859375 1.453125l0 7.5625l-1.71875 0l0 -10.5625l1.671875 0l0.03125 1.0625q0.6875 -1.265625 1.96875 -1.265625q0.40625 0 0.671875 0.140625l0.015625 1.671875zm6.7714844 8.953125q-0.15625 -0.34375 -0.234375 -1.15625q-0.90625 1.359375 -2.34375 1.359375q-1.4375 0 -2.25 -0.8125q-0.796875 -0.8125 -0.796875 -2.265625q0 -1.625 1.09375 -2.5625q1.09375 -0.953125 3.0 -0.96875l1.265625 0l0 -1.125q0 -0.953125 -0.421875 -1.34375q-0.40625 -0.40625 -1.265625 -0.40625q-0.78125 0 -1.28125 0.46875q-0.484375 0.46875 -0.484375 1.171875l-1.71875 0q0 -0.8125 0.46875 -1.546875q0.484375 -0.734375 1.296875 -1.15625q0.8125 -0.421875 1.796875 -0.421875q1.625 0 2.46875 0.8125q0.84375 0.796875 0.859375 2.34375l0 5.328125q0.015625 1.21875 0.34375 2.125l0 0.15625l-1.796875 0zm-2.3125 -1.375q0.640625 0 1.21875 -0.34375q0.578125 -0.359375 0.828125 -0.890625l0 -2.515625l-0.96875 0q-1.234375 0.015625 -1.953125 0.546875q-0.703125 0.53125 -0.703125 1.484375q0 0.90625 0.359375 1.3125q0.359375 0.40625 1.21875 0.40625zm8.080078 -9.1875l0.03125 0.96875q0.96875 -1.171875 2.5625 -1.171875q1.765625 0 2.46875 1.53125q0.984375 -1.53125 2.765625 -1.53125q2.921875 0 2.984375 3.640625l0 7.125l-1.71875 0l0 -6.953125q0 -1.15625 -0.40625 -1.71875q-0.40625 -0.5625 -1.390625 -0.5625q-0.78125 0 -1.265625 0.609375q-0.484375 0.609375 -0.5625 1.546875l0 7.078125l-1.734375 0l0 -7.03125q-0.03125 -2.203125 -1.796875 -2.203125q-1.296875 0 -1.84375 1.3125l0 7.921875l-1.71875 0l0 -10.5625l1.625 0zm17.189453 10.765625q-1.96875 0 -3.03125 -1.171875q-1.046875 -1.1875 -1.0625 -3.46875l0 -1.28125q0 -2.359375 1.03125 -3.703125q1.03125 -1.34375 2.875 -1.34375q1.859375 0 2.765625 1.1875q0.921875 1.171875 0.9375 3.671875l0 1.140625l-5.890625 0l0 0.25q0 1.6875 0.640625 2.46875q0.640625 0.765625 1.84375 0.765625q0.75 0 1.328125 -0.28125q0.59375 -0.296875 1.09375 -0.921875l0.90625 1.09375q-1.125 1.59375 -3.4375 1.59375zm-0.1875 -9.484375q-1.078125 0 -1.59375 0.75q-0.515625 0.734375 -0.578125 2.28125l4.15625 0l0 -0.234375q-0.078125 -1.5 -0.546875 -2.140625q-0.46875 -0.65625 -1.4375 -0.65625zm18.164062 9.28125l-7.953125 0l0 -1.296875l4.0625 -5.375q0.90625 -1.234375 1.265625 -2.03125q0.359375 -0.796875 0.359375 -1.6875q0 -1.140625 -0.53125 -1.84375q-0.53125 -0.703125 -1.390625 -0.703125q-1.078125 0 -1.671875 0.75q-0.59375 0.75 -0.59375 2.15625l-1.71875 0q0 -1.96875 1.0625 -3.171875q1.078125 -1.21875 2.921875 -1.21875q1.703125 0 2.671875 1.046875q0.984375 1.046875 0.984375 2.765625q0 2.109375 -2.1875 5.0l-3.171875 4.140625l5.890625 0l0 1.46875z" fill-rule="nonzero"/><g filter="url(#shadowFilter-p.1)"><use xlink:href="#p.1" transform=""/></g><defs><filter id="shadowFilter-p.1" filterUnits="userSpaceOnUse"><feGaussianBlur in="SourceAlpha" stdDeviation="4.4444447" result="blur"/><feComponentTransfer in="blur" color-interpolation-filters="sRGB"><feFuncR type="linear" slope="0" intercept="0.0"/><feFuncG type="linear" slope="0" intercept="0.0"/><feFuncB type="linear" slope="0" intercept="0.0"/><feFuncA type="linear" slope="0.298" intercept="0"/></feComponentTransfer></filter></defs><g id="p.1"><path fill="#ffffff" d="m508.3256 180.17323l0 0c0 -8.132065 6.5923767 -14.724411 14.724396 -14.724411l114.834656 0c3.9051514 0 7.6503906 1.5513153 10.411743 4.312683c2.7613525 2.7613525 4.312683 6.5065613 4.312683 10.411728l0 0l0 0c0 8.132065 -6.592346 14.724411 -14.724426 14.724411l-114.834656 0c-8.132019 0 -14.724396 -6.592346 -14.724396 -14.724411z" fill-rule="evenodd"/><path fill="#000000" d="m529.23376 185.19197q-1.078125 0 -1.90625 -0.484375q-0.8125 -0.484375 -1.265625 -1.359375q-0.4375 -0.875 -0.4375 -2.046875l0 -5.875l1.453125 0l0 5.96875q0 1.078125 0.5625 1.75q0.5625 0.65625 1.59375 0.65625q1.03125 0 1.59375 -0.65625q0.5625 -0.671875 0.5625 -1.75l0 -5.96875l1.453125 0l0 5.875q0 1.15625 -0.453125 2.03125q-0.4375 0.875 -1.25 1.375q-0.8125 0.484375 -1.90625 0.484375zm5.2666626 -7.015625l1.359375 0l0 0.921875l0.078125 0q0.296875 -0.484375 0.875 -0.8125q0.578125 -0.328125 1.3125 -0.328125q0.921875 0 1.671875 0.46875q0.75 0.46875 1.171875 1.296875q0.421875 0.8125 0.421875 1.84375q0 1.046875 -0.421875 1.875q-0.421875 0.828125 -1.171875 1.296875q-0.75 0.453125 -1.671875 0.453125q-0.734375 0 -1.3125 -0.328125q-0.578125 -0.328125 -0.875 -0.796875l-0.078125 0l0.078125 0.953125l0 2.828125l-1.4375 0l0 -9.671875zm3.421875 5.6875q0.546875 0 1.015625 -0.28125q0.46875 -0.28125 0.75 -0.796875q0.28125 -0.53125 0.28125 -1.21875q0 -0.671875 -0.28125 -1.1875q-0.28125 -0.53125 -0.75 -0.8125q-0.46875 -0.28125 -1.015625 -0.28125q-0.53125 0 -1.015625 0.28125q-0.46875 0.28125 -0.765625 0.8125q-0.28125 0.515625 -0.28125 1.1875q0 0.6875 0.28125 1.21875q0.296875 0.515625 0.765625 0.796875q0.484375 0.28125 1.015625 0.28125zm7.7036743 1.328125q-0.921875 0 -1.671875 -0.453125q-0.75 -0.46875 -1.171875 -1.296875q-0.421875 -0.828125 -0.421875 -1.875q0 -1.03125 0.421875 -1.84375q0.421875 -0.828125 1.171875 -1.296875q0.75 -0.46875 1.671875 -0.46875q0.734375 0 1.3125 0.328125q0.578125 0.328125 0.875 0.8125l0.078125 0l-0.078125 -0.953125l0 -2.71875l1.421875 0l0 9.546875l-1.34375 0l0 -0.90625l-0.078125 0q-0.296875 0.46875 -0.875 0.796875q-0.578125 0.328125 -1.3125 0.328125zm0.203125 -1.328125q0.53125 0 1.0 -0.28125q0.484375 -0.28125 0.765625 -0.796875q0.296875 -0.53125 0.296875 -1.21875q0 -0.671875 -0.296875 -1.1875q-0.28125 -0.53125 -0.765625 -0.8125q-0.46875 -0.28125 -1.0 -0.28125q-0.53125 0 -1.0 0.28125q-0.46875 0.28125 -0.765625 0.8125q-0.28125 0.515625 -0.28125 1.1875q0 0.6875 0.28125 1.21875q0.296875 0.515625 0.765625 0.796875q0.46875 0.28125 1.0 0.28125zm7.1590576 1.328125q-0.734375 0 -1.3125 -0.28125q-0.5625 -0.296875 -0.890625 -0.8125q-0.3125 -0.53125 -0.3125 -1.1875q0 -0.703125 0.375 -1.21875q0.375 -0.515625 1.015625 -0.78125q0.640625 -0.28125 1.421875 -0.28125q0.59375 0 1.078125 0.109375q0.5 0.109375 0.78125 0.265625l0 -0.359375q0 -0.65625 -0.484375 -1.0625q-0.46875 -0.40625 -1.234375 -0.40625q-0.515625 0 -0.984375 0.234375q-0.46875 0.234375 -0.75 0.625l-0.984375 -0.75q0.453125 -0.625 1.171875 -0.96875q0.71875 -0.359375 1.59375 -0.359375q1.46875 0 2.265625 0.734375q0.8125 0.71875 0.8125 2.03125l0 4.25l-1.40625 0l0 -0.84375l-0.078125 0q-0.28125 0.453125 -0.828125 0.765625q-0.546875 0.296875 -1.25 0.296875zm0.25 -1.171875q0.546875 0 0.984375 -0.265625q0.4375 -0.265625 0.671875 -0.703125q0.25 -0.4375 0.25 -0.9375q-0.3125 -0.1875 -0.734375 -0.296875q-0.40625 -0.109375 -0.859375 -0.109375q-0.84375 0 -1.234375 0.34375q-0.390625 0.328125 -0.390625 0.875q0 0.46875 0.359375 0.78125q0.359375 0.3125 0.953125 0.3125zm7.550049 1.0625q-0.453125 0 -0.84375 -0.140625q-0.390625 -0.140625 -0.65625 -0.390625q-0.5625 -0.546875 -0.5625 -1.546875l0 -3.578125l-1.1875 0l0 -1.25l1.1875 0l0 -1.921875l1.4375 0l0 1.921875l1.671875 0l0 1.25l-1.671875 0l0 3.265625q0 0.5625 0.21875 0.78125q0.21875 0.265625 0.6875 0.265625q0.234375 0 0.40625 -0.0625q0.171875 -0.0625 0.390625 -0.203125l0 1.40625q-0.453125 0.203125 -1.078125 0.203125zm5.270447 0.109375q-0.984375 0 -1.78125 -0.46875q-0.78125 -0.46875 -1.234375 -1.28125q-0.4375 -0.828125 -0.4375 -1.859375q0 -0.96875 0.421875 -1.796875q0.4375 -0.84375 1.203125 -1.328125q0.78125 -0.5 1.75 -0.5q1.03125 0 1.78125 0.453125q0.75 0.4375 1.140625 1.234375q0.390625 0.78125 0.390625 1.78125q0 0.265625 -0.03125 0.453125l-5.25 0q0.09375 0.96875 0.6875 1.5q0.609375 0.53125 1.40625 0.53125q0.65625 0 1.125 -0.296875q0.46875 -0.3125 0.734375 -0.796875l1.1875 0.5625q-0.453125 0.84375 -1.234375 1.328125q-0.765625 0.484375 -1.859375 0.484375zm1.8125 -4.390625q-0.03125 -0.375 -0.25 -0.75q-0.203125 -0.375 -0.609375 -0.609375q-0.40625 -0.25 -1.015625 -0.25q-0.71875 0 -1.21875 0.4375q-0.5 0.4375 -0.6875 1.171875l3.78125 0zm5.2928467 4.390625q-1.15625 0 -1.90625 -0.5q-0.75 -0.515625 -1.0625 -1.328125l1.296875 -0.5625q0.234375 0.546875 0.671875 0.84375q0.453125 0.28125 1.0 0.28125q0.578125 0 0.96875 -0.203125q0.390625 -0.21875 0.390625 -0.625q0 -0.375 -0.328125 -0.59375q-0.328125 -0.21875 -1.03125 -0.390625l-0.8125 -0.171875q-0.8125 -0.203125 -1.34375 -0.703125q-0.53125 -0.515625 -0.53125 -1.296875q0 -0.578125 0.34375 -1.03125q0.359375 -0.453125 0.953125 -0.703125q0.59375 -0.25 1.296875 -0.25q0.96875 0 1.671875 0.375q0.71875 0.375 1.046875 1.09375l-1.25 0.5625q-0.40625 -0.8125 -1.453125 -0.8125q-0.5 0 -0.84375 0.21875q-0.34375 0.203125 -0.34375 0.53125q0 0.59375 1.046875 0.859375l0.984375 0.25q1.0 0.25 1.515625 0.765625q0.515625 0.5 0.515625 1.234375q0 0.640625 -0.375 1.140625q-0.359375 0.484375 -1.0 0.75q-0.640625 0.265625 -1.421875 0.265625zm3.204895 -0.21875l0 0zm6.7304688 0.109375q-0.453125 0 -0.84375 -0.140625q-0.390625 -0.140625 -0.65625 -0.390625q-0.5625 -0.546875 -0.5625 -1.546875l0 -3.578125l-1.1875 0l0 -1.25l1.1875 0l0 -1.921875l1.4375 0l0 1.921875l1.671875 0l0 1.25l-1.671875 0l0 3.265625q0 0.5625 0.21875 0.78125q0.21875 0.265625 0.6875 0.265625q0.234375 0 0.40625 -0.0625q0.171875 -0.0625 0.390625 -0.203125l0 1.40625q-0.453125 0.203125 -1.078125 0.203125zm2.5100098 -9.65625l1.4375 0l0 2.609375l-0.078125 1.078125l0.078125 0q0.296875 -0.515625 0.875 -0.828125q0.578125 -0.328125 1.265625 -0.328125q1.25 0 1.890625 0.75q0.65625 0.734375 0.65625 1.96875l0 4.296875l-1.421875 0l0 -4.109375q0 -0.78125 -0.421875 -1.171875q-0.421875 -0.40625 -1.078125 -0.40625q-0.484375 0 -0.890625 0.28125q-0.40625 0.28125 -0.640625 0.765625q-0.234375 0.484375 -0.234375 1.015625l0 3.625l-1.4375 0l0 -9.546875zm10.864014 9.765625q-0.984375 0 -1.78125 -0.46875q-0.78125 -0.46875 -1.234375 -1.28125q-0.4375 -0.828125 -0.4375 -1.859375q0 -0.96875 0.421875 -1.796875q0.4375 -0.84375 1.203125 -1.328125q0.78125 -0.5 1.75 -0.5q1.03125 0 1.78125 0.453125q0.75 0.4375 1.140625 1.234375q0.390625 0.78125 0.390625 1.78125q0 0.265625 -0.03125 0.453125l-5.25 0q0.09375 0.96875 0.6875 1.5q0.609375 0.53125 1.40625 0.53125q0.65625 0 1.125 -0.296875q0.46875 -0.3125 0.734375 -0.796875l1.1875 0.5625q-0.453125 0.84375 -1.234375 1.328125q-0.765625 0.484375 -1.859375 0.484375zm1.8125 -4.390625q-0.03125 -0.375 -0.25 -0.75q-0.203125 -0.375 -0.609375 -0.609375q-0.40625 -0.25 -1.015625 -0.25q-0.71875 0 -1.21875 0.4375q-0.5 0.4375 -0.6875 1.171875l3.78125 0zm1.9136353 4.171875l0 0zm3.1992188 -6.796875l1.59375 0l1.90625 4.9375l0.078125 0l1.9375 -4.9375l1.578125 0l-2.84375 6.796875l-1.4375 0l-2.8125 -6.796875zm10.018799 7.015625q-0.734375 0 -1.3125 -0.28125q-0.5625 -0.296875 -0.890625 -0.8125q-0.3125 -0.53125 -0.3125 -1.1875q0 -0.703125 0.375 -1.21875q0.375 -0.515625 1.015625 -0.78125q0.640625 -0.28125 1.421875 -0.28125q0.59375 0 1.078125 0.109375q0.5 0.109375 0.78125 0.265625l0 -0.359375q0 -0.65625 -0.484375 -1.0625q-0.46875 -0.40625 -1.234375 -0.40625q-0.515625 0 -0.984375 0.234375q-0.46875 0.234375 -0.75 0.625l-0.984375 -0.75q0.453125 -0.625 1.171875 -0.96875q0.71875 -0.359375 1.59375 -0.359375q1.46875 0 2.265625 0.734375q0.8125 0.71875 0.8125 2.03125l0 4.25l-1.40625 0l0 -0.84375l-0.078125 0q-0.28125 0.453125 -0.828125 0.765625q-0.546875 0.296875 -1.25 0.296875zm0.25 -1.171875q0.546875 0 0.984375 -0.265625q0.4375 -0.265625 0.671875 -0.703125q0.25 -0.4375 0.25 -0.9375q-0.3125 -0.1875 -0.734375 -0.296875q-0.40625 -0.109375 -0.859375 -0.109375q-0.84375 0 -1.234375 0.34375q-0.390625 0.328125 -0.390625 0.875q0 0.46875 0.359375 0.78125q0.359375 0.3125 0.953125 0.3125zm4.9020996 -8.59375l1.4375 0l0 9.546875l-1.4375 0l0 -9.546875zm5.60083 9.765625q-1.234375 0 -1.890625 -0.734375q-0.640625 -0.75 -0.640625 -2.0625l0 -4.21875l1.4375 0l0 4.015625q0 0.828125 0.390625 1.25q0.390625 0.421875 1.046875 0.421875q0.53125 0 0.9375 -0.28125q0.421875 -0.28125 0.640625 -0.734375q0.21875 -0.46875 0.21875 -1.015625l0 -3.65625l1.421875 0l0 6.796875l-1.34375 0l0 -0.921875l-0.078125 0q-0.296875 0.5 -0.890625 0.828125q-0.578125 0.3125 -1.25 0.3125zm8.288635 0q-0.984375 0 -1.78125 -0.46875q-0.78125 -0.46875 -1.234375 -1.28125q-0.4375 -0.828125 -0.4375 -1.859375q0 -0.96875 0.421875 -1.796875q0.4375 -0.84375 1.203125 -1.328125q0.78125 -0.5 1.75 -0.5q1.03125 0 1.78125 0.453125q0.75 0.4375 1.140625 1.234375q0.390625 0.78125 0.390625 1.78125q0 0.265625 -0.03125 0.453125l-5.25 0q0.09375 0.96875 0.6875 1.5q0.609375 0.53125 1.40625 0.53125q0.65625 0 1.125 -0.296875q0.46875 -0.3125 0.734375 -0.796875l1.1875 0.5625q-0.453125 0.84375 -1.234375 1.328125q-0.765625 0.484375 -1.859375 0.484375zm1.8125 -4.390625q-0.03125 -0.375 -0.25 -0.75q-0.203125 -0.375 -0.609375 -0.609375q-0.40625 -0.25 -1.015625 -0.25q-0.71875 0 -1.21875 0.4375q-0.5 0.4375 -0.6875 1.171875l3.78125 0z" fill-rule="nonzero"/></g><g filter="url(#shadowFilter-p.2)"><use xlink:href="#p.2" transform=""/></g><defs><filter id="shadowFilter-p.2" filterUnits="userSpaceOnUse"><feGaussianBlur in="SourceAlpha" stdDeviation="4.4444447" result="blur"/><feComponentTransfer in="blur" color-interpolation-filters="sRGB"><feFuncR type="linear" slope="0" intercept="0.0"/><feFuncG type="linear" slope="0" intercept="0.0"/><feFuncB type="linear" slope="0" intercept="0.0"/><feFuncA type="linear" slope="0.298" intercept="0"/></feComponentTransfer></filter></defs><g id="p.2"><path fill="#ffffff" d="m368.53296 260.7979l0 0c0 -8.13208 6.592346 -14.724426 14.724396 -14.724426l114.834656 0c3.9051514 0 7.65036 1.5513153 10.411713 4.312683c2.761383 2.7613678 4.312683 6.5065613 4.312683 10.411743l0 0l0 0c0 8.13205 -6.592346 14.724396 -14.724396 14.724396l-114.834656 0c-8.13205 0 -14.724396 -6.592346 -14.724396 -14.724396z" fill-rule="evenodd"/><path fill="#000000" d="m379.72418 256.05103l3.34375 0q0.875 0 1.5625 0.375q0.703125 0.375 1.109375 1.046875q0.40625 0.65625 0.40625 1.5q0 0.953125 -0.625 1.703125q-0.609375 0.734375 -1.546875 0.984375l-0.015625 0.078125l2.625 3.78125l0 0.078125l-1.6875 0l-2.546875 -3.75l-1.15625 0l0 3.75l-1.46875 0l0 -9.546875zm3.3125 4.453125q0.6875 0 1.15625 -0.4375q0.484375 -0.4375 0.484375 -1.109375q0 -0.609375 -0.4375 -1.0625q-0.4375 -0.46875 -1.15625 -0.46875l-1.890625 0l0 3.078125l1.84375 0zm7.5436707 5.3125q-0.984375 0 -1.78125 -0.46875q-0.78125 -0.46875 -1.234375 -1.28125q-0.4375 -0.828125 -0.4375 -1.859375q0 -0.96875 0.421875 -1.796875q0.4375 -0.84375 1.203125 -1.328125q0.78125 -0.5 1.75 -0.5q1.03125 0 1.78125 0.453125q0.75 0.4375 1.140625 1.234375q0.390625 0.78125 0.390625 1.78125q0 0.265625 -0.03125 0.453125l-5.25 0q0.09375 0.96875 0.6875 1.5q0.609375 0.53125 1.40625 0.53125q0.65625 0 1.125 -0.296875q0.46875 -0.3125 0.734375 -0.796875l1.1875 0.5625q-0.453125 0.84375 -1.234375 1.328125q-0.765625 0.484375 -1.859375 0.484375zm1.8125 -4.390625q-0.03125 -0.375 -0.25 -0.75q-0.203125 -0.375 -0.609375 -0.609375q-0.40625 -0.25 -1.015625 -0.25q-0.71875 0 -1.21875 0.4375q-0.5 0.4375 -0.6875 1.171875l3.78125 0zm3.5855103 -3.625q-0.40625 0 -0.703125 -0.28125q-0.28125 -0.296875 -0.28125 -0.6875q0 -0.40625 0.28125 -0.6875q0.296875 -0.28125 0.703125 -0.28125q0.390625 0 0.671875 0.28125q0.296875 0.28125 0.296875 0.6875q0 0.390625 -0.296875 0.6875q-0.28125 0.28125 -0.671875 0.28125zm-0.71875 1.0l1.4375 0l0 6.796875l-1.4375 0l0 -6.796875zm3.2226562 0l1.359375 0l0 0.9375l0.078125 0q0.296875 -0.515625 0.875 -0.828125q0.59375 -0.328125 1.265625 -0.328125q1.234375 0 1.875 0.734375q0.640625 0.71875 0.640625 1.984375l0 4.296875l-1.4375 0l0 -4.109375q0 -0.796875 -0.40625 -1.1875q-0.390625 -0.390625 -1.078125 -0.390625q-0.515625 0 -0.90625 0.28125q-0.390625 0.28125 -0.609375 0.75q-0.21875 0.453125 -0.21875 1.0l0 3.65625l-1.4375 0l0 -6.796875zm6.713623 0l1.59375 0l1.90625 4.9375l0.078125 0l1.9375 -4.9375l1.578125 0l-2.84375 6.796875l-1.4375 0l-2.8125 -6.796875zm11.014618 7.015625q-1.015625 0 -1.828125 -0.46875q-0.8125 -0.484375 -1.265625 -1.3125q-0.453125 -0.828125 -0.453125 -1.84375q0 -1.0 0.453125 -1.828125q0.453125 -0.828125 1.265625 -1.296875q0.8125 -0.484375 1.828125 -0.484375q1.015625 0 1.828125 0.484375q0.8125 0.484375 1.265625 1.3125q0.453125 0.828125 0.453125 1.8125q0 1.015625 -0.453125 1.84375q-0.453125 0.828125 -1.265625 1.3125q-0.796875 0.46875 -1.828125 0.46875zm0 -1.328125q0.578125 0 1.0625 -0.28125q0.484375 -0.28125 0.765625 -0.796875q0.296875 -0.515625 0.296875 -1.21875q0 -0.6875 -0.296875 -1.203125q-0.28125 -0.515625 -0.765625 -0.796875q-0.484375 -0.28125 -1.0625 -0.28125q-0.5625 0 -1.046875 0.28125q-0.484375 0.28125 -0.78125 0.796875q-0.296875 0.515625 -0.296875 1.203125q0 0.703125 0.296875 1.21875q0.296875 0.515625 0.78125 0.796875q0.484375 0.28125 1.046875 0.28125zm4.809326 -8.4375l1.4375 0l0 5.609375l0.046875 0l2.828125 -2.859375l1.78125 0l0 0.078125l-2.625 2.609375l2.71875 4.03125l0 0.078125l-1.703125 0l-2.015625 -3.125l-1.03125 1.03125l0 2.09375l-1.4375 0l0 -9.546875zm9.984283 9.765625q-0.984375 0 -1.78125 -0.46875q-0.78125 -0.46875 -1.234375 -1.28125q-0.4375 -0.828125 -0.4375 -1.859375q0 -0.96875 0.421875 -1.796875q0.4375 -0.84375 1.203125 -1.328125q0.78125 -0.5 1.75 -0.5q1.03125 0 1.78125 0.453125q0.75 0.4375 1.140625 1.234375q0.390625 0.78125 0.390625 1.78125q0 0.265625 -0.03125 0.453125l-5.25 0q0.09375 0.96875 0.6875 1.5q0.609375 0.53125 1.40625 0.53125q0.65625 0 1.125 -0.296875q0.46875 -0.3125 0.734375 -0.796875l1.1875 0.5625q-0.453125 0.84375 -1.234375 1.328125q-0.765625 0.484375 -1.859375 0.484375zm1.8125 -4.390625q-0.03125 -0.375 -0.25 -0.75q-0.203125 -0.375 -0.609375 -0.609375q-0.40625 -0.25 -1.015625 -0.25q-0.71875 0 -1.21875 0.4375q-0.5 0.4375 -0.6875 1.171875l3.78125 0zm1.9136658 4.171875l0 0zm6.730438 0.109375q-0.453125 0 -0.84375 -0.140625q-0.390625 -0.140625 -0.65625 -0.390625q-0.5625 -0.546875 -0.5625 -1.546875l0 -3.578125l-1.1875 0l0 -1.25l1.1875 0l0 -1.921875l1.4375 0l0 1.921875l1.671875 0l0 1.25l-1.671875 0l0 3.265625q0 0.5625 0.21875 0.78125q0.21875 0.265625 0.6875 0.265625q0.234375 0 0.40625 -0.0625q0.171875 -0.0625 0.390625 -0.203125l0 1.40625q-0.453125 0.203125 -1.078125 0.203125zm2.5100098 -9.65625l1.4375 0l0 2.609375l-0.078125 1.078125l0.078125 0q0.296875 -0.515625 0.875 -0.828125q0.578125 -0.328125 1.265625 -0.328125q1.25 0 1.890625 0.75q0.65625 0.734375 0.65625 1.96875l0 4.296875l-1.421875 0l0 -4.109375q0 -0.78125 -0.421875 -1.171875q-0.421875 -0.40625 -1.078125 -0.40625q-0.484375 0 -0.890625 0.28125q-0.40625 0.28125 -0.640625 0.765625q-0.234375 0.484375 -0.234375 1.015625l0 3.625l-1.4375 0l0 -9.546875zm10.864014 9.765625q-0.984375 0 -1.78125 -0.46875q-0.78125 -0.46875 -1.234375 -1.28125q-0.4375 -0.828125 -0.4375 -1.859375q0 -0.96875 0.421875 -1.796875q0.4375 -0.84375 1.203125 -1.328125q0.78125 -0.5 1.75 -0.5q1.03125 0 1.78125 0.453125q0.75 0.4375 1.140625 1.234375q0.390625 0.78125 0.390625 1.78125q0 0.265625 -0.03125 0.453125l-5.25 0q0.09375 0.96875 0.6875 1.5q0.609375 0.53125 1.40625 0.53125q0.65625 0 1.125 -0.296875q0.46875 -0.3125 0.734375 -0.796875l1.1875 0.5625q-0.453125 0.84375 -1.234375 1.328125q-0.765625 0.484375 -1.859375 0.484375zm1.8125 -4.390625q-0.03125 -0.375 -0.25 -0.75q-0.203125 -0.375 -0.609375 -0.609375q-0.40625 -0.25 -1.015625 -0.25q-0.71875 0 -1.21875 0.4375q-0.5 0.4375 -0.6875 1.171875l3.78125 0zm1.9136658 4.171875l0 0zm3.9491882 -6.796875l1.359375 0l0 1.0l0.078125 0q0.21875 -0.515625 0.765625 -0.859375q0.5625 -0.34375 1.203125 -0.34375q0.46875 0 0.828125 0.140625l0 1.484375q-0.546875 -0.234375 -1.046875 -0.234375q-0.765625 0 -1.265625 0.59375q-0.484375 0.578125 -0.484375 1.421875l0 3.59375l-1.4375 0l0 -6.796875zm8.0383 7.015625q-0.984375 0 -1.78125 -0.46875q-0.78125 -0.46875 -1.234375 -1.28125q-0.4375 -0.828125 -0.4375 -1.859375q0 -0.96875 0.421875 -1.796875q0.4375 -0.84375 1.203125 -1.328125q0.78125 -0.5 1.75 -0.5q1.03125 0 1.78125 0.453125q0.75 0.4375 1.140625 1.234375q0.390625 0.78125 0.390625 1.78125q0 0.265625 -0.03125 0.453125l-5.25 0q0.09375 0.96875 0.6875 1.5q0.609375 0.53125 1.40625 0.53125q0.65625 0 1.125 -0.296875q0.46875 -0.3125 0.734375 -0.796875l1.1875 0.5625q-0.453125 0.84375 -1.234375 1.328125q-0.765625 0.484375 -1.859375 0.484375zm1.8125 -4.390625q-0.03125 -0.375 -0.25 -0.75q-0.203125 -0.375 -0.609375 -0.609375q-0.40625 -0.25 -1.015625 -0.25q-0.71875 0 -1.21875 0.4375q-0.5 0.4375 -0.6875 1.171875l3.78125 0zm4.949066 4.390625q-0.734375 0 -1.3125 -0.28125q-0.5625 -0.296875 -0.890625 -0.8125q-0.3125 -0.53125 -0.3125 -1.1875q0 -0.703125 0.375 -1.21875q0.375 -0.515625 1.015625 -0.78125q0.640625 -0.28125 1.421875 -0.28125q0.59375 0 1.078125 0.109375q0.5 0.109375 0.78125 0.265625l0 -0.359375q0 -0.65625 -0.484375 -1.0625q-0.46875 -0.40625 -1.234375 -0.40625q-0.515625 0 -0.984375 0.234375q-0.46875 0.234375 -0.75 0.625l-0.984375 -0.75q0.453125 -0.625 1.171875 -0.96875q0.71875 -0.359375 1.59375 -0.359375q1.46875 0 2.265625 0.734375q0.8125 0.71875 0.8125 2.03125l0 4.25l-1.40625 0l0 -0.84375l-0.078125 0q-0.28125 0.453125 -0.828125 0.765625q-0.546875 0.296875 -1.25 0.296875zm0.25 -1.171875q0.546875 0 0.984375 -0.265625q0.4375 -0.265625 0.671875 -0.703125q0.25 -0.4375 0.25 -0.9375q-0.3125 -0.1875 -0.734375 -0.296875q-0.40625 -0.109375 -0.859375 -0.109375q-0.84375 0 -1.234375 0.34375q-0.390625 0.328125 -0.390625 0.875q0 0.46875 0.359375 0.78125q0.359375 0.3125 0.953125 0.3125zm7.7417297 1.171875q-0.921875 0 -1.671875 -0.453125q-0.75 -0.46875 -1.171875 -1.296875q-0.421875 -0.828125 -0.421875 -1.875q0 -1.03125 0.421875 -1.84375q0.421875 -0.828125 1.171875 -1.296875q0.75 -0.46875 1.671875 -0.46875q0.734375 0 1.3125 0.328125q0.578125 0.328125 0.875 0.8125l0.078125 0l-0.078125 -0.953125l0 -2.71875l1.421875 0l0 9.546875l-1.34375 0l0 -0.90625l-0.078125 0q-0.296875 0.46875 -0.875 0.796875q-0.578125 0.328125 -1.3125 0.328125zm0.203125 -1.328125q0.53125 0 1.0 -0.28125q0.484375 -0.28125 0.765625 -0.796875q0.296875 -0.53125 0.296875 -1.21875q0 -0.671875 -0.296875 -1.1875q-0.28125 -0.53125 -0.765625 -0.8125q-0.46875 -0.28125 -1.0 -0.28125q-0.53125 0 -1.0 0.28125q-0.46875 0.28125 -0.765625 0.8125q-0.28125 0.515625 -0.28125 1.1875q0 0.6875 0.28125 1.21875q0.296875 0.515625 0.765625 0.796875q0.46875 0.28125 1.0 0.28125zm8.127808 1.328125q-0.984375 0 -1.78125 -0.46875q-0.78125 -0.46875 -1.234375 -1.28125q-0.4375 -0.828125 -0.4375 -1.859375q0 -0.96875 0.421875 -1.796875q0.4375 -0.84375 1.203125 -1.328125q0.78125 -0.5 1.75 -0.5q1.03125 0 1.78125 0.453125q0.75 0.4375 1.140625 1.234375q0.390625 0.78125 0.390625 1.78125q0 0.265625 -0.03125 0.453125l-5.25 0q0.09375 0.96875 0.6875 1.5q0.609375 0.53125 1.40625 0.53125q0.65625 0 1.125 -0.296875q0.46875 -0.3125 0.734375 -0.796875l1.1875 0.5625q-0.453125 0.84375 -1.234375 1.328125q-0.765625 0.484375 -1.859375 0.484375zm1.8125 -4.390625q-0.03125 -0.375 -0.25 -0.75q-0.203125 -0.375 -0.609375 -0.609375q-0.40625 -0.25 -1.015625 -0.25q-0.71875 0 -1.21875 0.4375q-0.5 0.4375 -0.6875 1.171875l3.78125 0zm2.7573853 -2.625l1.359375 0l0 1.0l0.078125 0q0.21875 -0.515625 0.765625 -0.859375q0.5625 -0.34375 1.203125 -0.34375q0.46875 0 0.828125 0.140625l0 1.484375q-0.546875 -0.234375 -1.046875 -0.234375q-0.765625 0 -1.265625 0.59375q-0.484375 0.578125 -0.484375 1.421875l0 3.59375l-1.4375 0l0 -6.796875z" fill-rule="nonzero"/></g></g></svg>